<?xml version="1.0" encoding="UTF-8"?>
<!-- Generated by Pixelmator Pro 3.7.1 -->
<svg width="482" height="198" viewBox="0 0 482 198" xmlns="http://www.w3.org/2000/svg">
    <path id="Path" fill="#22493f" stroke="none" d="M 38.710747 32.899445 C 37.088554 29.547974 35.016972 25.953384 35.454845 22.087921 L 40.371811 22.104233 Z M 168.626556 34.426315 C 168.423599 36.584106 166.009323 42.088943 164.628662 43.796951 C 163.833633 44.781937 163.614014 44.38118 163.296707 43.330017 C 162.723938 41.419662 162.842804 38.26152 163.003525 36.253616 C 163.364731 31.65451 164.571136 27.208237 165.76918 22.782745 C 165.777512 22.770264 165.968842 22.866776 166.002182 22.900223 C 166.645935 23.506546 167.748138 27.947968 167.986282 29.023834 C 168.359833 30.708496 168.786575 32.701736 168.626556 34.426315 M 174.045944 41.294739 C 174.183792 41.174347 175.549896 40.10379 175.632828 40.204117 C 175.639481 40.699982 175.725632 41.150284 175.719803 41.65448 C 175.593048 49.692062 176.079041 57.744202 175.814743 65.806351 C 175.768097 67.28125 175.55481 68.797333 175.524765 70.276489 C 175.504944 71.247314 176.027405 71.982452 174.667892 72.315468 C 173.888214 72.504532 171.525406 72.505051 170.742798 72.323257 C 170.355408 72.230301 169.94313 70.953835 169.798492 70.545029 C 168.836655 67.800003 168.592255 64.857346 167.980804 62.025955 C 167.127228 58.068695 166.559601 57.108429 167.552795 52.907288 C 168.630386 48.36055 170.46875 44.391403 174.045944 41.294739 M 171.523483 29.148056 C 171.460602 29.264557 171.385223 29.389297 171.235077 29.388809 C 171.172577 29.388596 170.805222 28.337326 170.75148 28.199631 C 170.082413 26.393143 169.730652 24.466858 169.720215 22.53334 L 174.199692 22.548203 Z M 175.748962 32.866501 C 175.695465 35.158142 176.093155 35.897018 174.237671 37.520142 C 174.032715 37.70282 172.858719 38.636429 172.651123 38.43573 L 175.33287 30.164978 C 175.350006 30.006638 175.654343 29.961823 175.745941 30.024612 C 176.049454 30.229858 175.660416 31.886963 175.655029 32.257797 C 175.650177 32.470306 175.753784 32.662354 175.748962 32.866501 M 158.832336 22.497223 L 160.324036 22.502167 C 160.415283 22.594147 159.882919 24.842514 159.786148 25.088043 C 159.727341 25.229507 159.668427 25.395996 159.480927 25.395386 C 159.331024 25.399033 158.931274 22.772568 158.832336 22.497223 M 55.043957 112.421165 C 60.93504 110.232262 67.102989 108.702606 73.125763 106.926682 C 83.415665 103.893967 95.654533 102.484421 105.248917 98.115959 C 106.580025 97.512032 108.099197 96.812843 108.891083 95.52372 C 107.533646 93.906654 105.333076 92.836792 103.343277 92.188461 C 97.245338 90.201424 90.30204 90.540939 84.057358 88.853409 C 82.63356 88.473686 79.594429 87.605194 79.504578 85.842316 C 79.461609 84.958748 81.434631 84.336136 82.139503 84.10508 C 86.135742 82.818275 91.183929 82.209961 95.377663 81.661369 C 104.161339 80.502937 113.48172 79.542091 122.329666 79.100616 C 122.471298 79.092728 122.929985 79.035896 122.991974 79.190277 C 121.98703 79.35363 120.853416 79.445702 119.877426 79.713333 C 119.047554 79.943924 118.141815 80.378479 117.294983 80.642334 C 114.304344 81.569977 111.2976 82.272537 108.294525 83.120972 C 107.739807 83.277458 104.966209 84.055801 104.748512 84.400963 C 104.593399 84.646301 104.912376 85.19735 105.112045 85.3564 C 105.92659 85.99247 109.15435 86.444893 110.287376 86.602821 C 120.474846 88.028351 131.398254 87.510384 141.284439 90.560043 C 143.057785 91.10347 147.240494 92.629929 148.302307 94.087738 C 151.824142 98.920555 145.002213 101.602226 141.526596 103.003304 C 134.045364 106.02037 126.122681 107.648331 119.236794 112.021629 C 117.132263 113.356392 114.889717 114.857384 114.314423 117.463951 C 113.967384 119.042091 114.190323 119.692856 115.432838 120.701195 C 116.875015 121.868584 120.284676 122.759117 122.141243 123.315323 C 132.656509 126.458748 143.55127 128.249176 154.145493 131.434479 C 161.70929 133.705551 169.172653 136.151291 175.339264 141.280411 C 175.509689 141.422638 176.0168 141.78273 176.066284 141.953735 L 175.985123 166.417526 C 171.876007 170.308273 167.090561 173.405151 162.230698 176.268372 L 48.291374 175.890381 L 53.633801 173.207901 C 57.42445 171.11615 61.414375 169.229294 65.238136 167.091827 C 70.427444 164.200577 76.101151 160.935806 80.709496 157.205048 C 82.234604 155.968338 86.175392 152.556213 85.865807 150.425842 C 85.731262 149.475388 83.865166 148.039917 83.100403 147.483185 C 74.977608 141.580841 63.581493 138.947083 54.065659 135.977814 C 48.833244 134.347839 37.785278 131.052612 39.585003 123.645645 C 40.945129 118.049782 50.141632 114.246712 55.043957 112.421165 M 131.412384 27.981598 C 131.285004 26.122772 130.907837 24.275558 130.905731 22.404572 L 133.585159 22.413467 C 136.524017 25.765091 140.344055 29.89888 141.692261 34.228622 C 143.522858 40.105896 143.604202 47.010803 144.796387 53.110977 C 145.533798 56.905319 147.217072 60.756989 147.449997 64.653839 C 147.521042 65.833282 147.569595 66.283524 146.392303 65.704544 C 144.241501 64.647354 142.19722 62.907166 140.109406 61.7043 C 139.15274 61.151077 138.091553 60.751678 137.130737 60.198502 C 135.62944 59.335114 135.493729 58.809647 134.752609 57.311264 C 132.505325 52.732681 130.555084 47.742538 130.484634 42.558624 C 130.421555 37.728973 131.742294 32.741333 131.412384 27.981598 M 117.030083 22.358536 L 127.834709 22.394379 L 128.172806 27.262482 C 128.235596 29.679504 128.127274 34.733688 127.236526 36.901703 C 126.896378 37.729736 126.846153 37.783768 126.344452 37.044556 C 125.680916 36.075607 125.239357 34.794907 124.651062 33.738739 C 123.702576 32.043823 122.508347 30.243881 121.438789 28.615265 C 120.033295 26.472961 118.49408 24.455215 117.030083 22.358536 M 126.919876 50.738983 C 127.136978 51.823135 127.312637 52.890442 127.200798 54.002625 C 124.746033 52.873627 122.429848 51.403351 120.586327 49.417908 C 115.188606 43.599625 111.468811 35.66597 108.30085 28.446625 C 108.114777 28.016861 107.287323 26.268143 107.2715 25.959732 C 107.251877 25.617996 108.384506 24.571701 108.68129 24.305954 C 109.433563 23.620941 110.298004 23.052948 111.06292 22.384583 C 111.271446 22.301956 112.446503 22.301651 112.637863 22.389816 C 112.81266 22.465408 114.07869 23.965515 114.302887 24.237137 C 114.999985 25.097794 115.663506 26.070953 116.297943 26.981445 C 121.598068 34.620346 125.092117 41.499039 126.919876 50.738983 M 80.318268 42.800583 C 85.889915 38.873001 91.953674 36.076279 97.620239 32.461502 C 98.204971 32.088379 99.630112 30.813873 100.180115 30.828201 C 100.934204 30.847366 101.901344 31.99646 102.424461 32.535736 C 103.362869 33.513947 104.380142 34.638184 105.264191 35.666199 C 106.306099 36.869736 106.716179 37.629471 107.545418 38.915665 C 108.167221 39.880264 109.184769 40.846237 109.889984 41.836121 C 113.353081 46.710434 114.625557 52.523346 119.651497 56.119385 C 121.597076 57.513474 123.747765 58.603989 125.680573 60.02301 C 127.360107 61.249466 128.876068 62.696274 130.513687 63.972595 C 134.137863 66.801468 138.792023 69.429596 141.759659 72.931335 C 141.962982 73.169502 143.012634 74.539749 142.761841 74.780617 C 141.115601 74.925125 139.457214 74.902954 137.814606 75.130844 C 132.157425 75.916344 126.361237 78.422279 120.592377 77.769775 C 118.701233 77.555122 116.836143 77.065598 114.953453 76.805138 C 109.943024 76.113464 104.854889 76.179962 99.891273 75.138405 C 96.805756 74.490654 93.73423 73.380356 90.563904 73.203156 C 86.780891 72.990593 82.935486 74.073784 79.139999 73.869484 C 76.948715 73.753876 74.679794 73.125496 72.471252 73.134834 C 69.825203 73.146866 67.080414 74.000313 64.389343 73.820549 C 63.106182 73.732979 61.882721 73.237221 60.607983 73.112137 C 60.137421 73.068893 56.7747 73.041077 56.70509 72.682503 C 56.967991 71.295792 57.705547 70.043961 58.380505 68.821152 C 64.232742 58.177368 70.294044 49.863632 80.318268 42.800583 M 71.846489 31.630096 C 71.766716 31.758972 71.020844 33.014938 70.896164 32.918686 C 70.650612 31.576141 70.079865 30.30751 69.792519 28.981415 C 69.279564 26.629608 69.653336 24.497345 70.2276 22.203278 L 76.461212 22.223953 C 75.187881 25.428314 73.656296 28.690094 71.846489 31.630096 M 96.513252 27.028305 C 96.650291 27.153748 97.423027 27.881363 97.343292 27.997787 C 95.856697 28.959549 94.461555 30.025848 92.912743 30.899918 C 87.731903 33.816284 82.036987 35.893356 77.166801 39.364883 C 76.260597 40.011963 74.120407 42.013306 73.240356 42.28125 C 72.639641 42.466766 72.615486 42.241653 72.72966 41.67952 C 72.911812 40.788391 74.021477 39.158646 74.466202 38.230865 C 76.954674 33.026321 78.777405 27.444504 81.378036 22.281952 L 89.832649 22.289139 C 92.019447 23.829849 94.552498 25.205017 96.513252 27.028305 M 105.01577 27.681503 C 105.236488 27.753098 106.349579 31.344528 106.198784 31.539886 C 105.503304 31.441757 103.33429 29.617783 103.181793 29.075516 C 103.087196 28.741882 104.620224 27.54689 105.01577 27.681503 M 101.594009 25.36174 C 101.25589 25.577286 100.400017 26.066147 100.029167 26.064926 C 99.333359 26.066757 96.860527 24.054276 96.345985 23.431656 L 95.516281 22.28717 L 102.237679 22.309464 C 102.386642 22.593353 103.295006 23.871399 103.19841 24.06694 C 103.093704 24.279114 101.869736 25.187607 101.594009 25.36174 M 63.289654 22.180267 L 66.010582 22.189285 L 66.35347 25.615677 C 65.601868 24.846466 64.7248 24.143478 64.031708 23.324463 C 63.749615 22.990204 63.434036 22.593277 63.289654 22.180267 M 66.550835 32.725082 C 67.953926 40.596909 63.297142 46.269348 59.464054 52.469498 C 57.876175 55.039444 56.442287 57.701508 54.679718 60.162476 C 54.081226 61.002228 53.265667 61.849564 52.721386 62.685287 C 52.578808 62.905701 52.409637 63.709335 52.023285 63.303879 C 51.628906 62.89003 52.268585 59.716965 52.395935 59.009018 C 52.837505 56.531158 53.474644 54.124756 53.708088 51.608719 C 54.459805 43.585663 54.836655 35.448929 57.279331 27.710709 C 57.498203 27.011353 59.168083 22.31662 59.572834 22.18045 C 59.685509 22.14328 60.931351 22.147415 60.993725 22.185165 C 61.035145 22.210327 61.308052 22.886215 61.407623 23.044937 C 63.430111 26.351837 65.826736 28.668274 66.550835 32.725082 M 30.784594 70.825569 C 30.729385 71.129585 30.572132 72.020798 30.442249 72.241188 C 30.362692 72.378441 30.300234 72.365723 30.179218 72.415306 C 29.415749 72.721123 27.46035 73.0355 26.648033 72.978668 C 26.327305 72.956734 24.086687 72.553482 23.978689 72.432274 C 23.929285 72.311256 23.904581 72.177818 23.884258 72.048599 C 23.684181 70.835342 23.652071 69.180984 23.618607 67.934967 C 23.459949 61.742325 23.601492 55.504898 23.505322 49.316681 C 23.494846 48.720825 23.512495 47.154099 23.859989 46.688568 C 23.9186 46.609543 24.081198 46.610077 24.126755 46.639404 C 24.168406 46.668716 24.225082 47.173126 24.287111 47.314987 C 24.497883 47.807388 24.916954 48.358841 25.165182 48.89299 C 26.315536 51.334503 26.973698 53.924347 28.036392 56.369659 C 28.396202 57.195923 28.922842 57.997726 29.286884 58.798996 C 30.714024 61.924774 31.408295 67.46489 30.784594 70.825569 M 23.687576 22.048889 L 25.662663 22.055435 C 27.991768 24.634171 29.966557 27.232529 31.268513 30.487106 C 33.657192 36.449539 35.659 43.414948 34.921009 49.875427 C 34.89505 50.121201 34.656422 51.770493 34.431355 51.761459 L 30.485477 45.447968 C 29.02294 41.659531 27.030306 38.111038 25.388294 34.405304 C 24.656181 32.765289 23.435234 30.261108 23.311918 28.502213 C 23.156725 26.343231 23.805414 24.207733 23.687576 22.048889 M 7.14223 189.87146 L 190.135361 190.478516 L 190.742416 7.485443 L 7.749289 6.878372 Z"/>
    <path id="path1" fill="#22493f" stroke="none" d="M 250.142929 71.430344 C 251.053223 70.799995 251.747864 69.973068 252.226135 68.945419 C 252.70462 67.921921 252.945847 66.814316 252.949783 65.630966 C 252.953461 64.522568 252.719452 63.455017 252.247772 62.42421 C 251.776321 61.397614 251.066422 60.56604 250.122726 59.929535 C 249.174637 59.29303 248.067291 58.972641 246.804855 58.96846 L 239.808548 58.945251 C 239.491913 58.944199 239.216675 59.04332 238.97847 59.238327 C 238.740265 59.437561 238.622589 59.733063 238.621277 60.128876 L 238.584702 71.154449 C 238.583649 71.471161 238.699432 71.746567 238.936188 71.98484 C 239.172943 72.223175 239.447449 72.34494 239.764099 72.345985 L 246.760391 72.369202 C 248.102188 72.37365 249.232376 72.060684 250.142929 71.430344 M 249.830612 39.94812 C 250.70343 39.355118 251.376892 38.586472 251.855118 37.642197 C 252.33313 36.693695 252.574066 35.669479 252.577744 34.56102 C 252.583252 32.902649 252.054901 31.438293 250.992218 30.168045 C 249.929764 28.901871 248.606674 28.264114 247.023422 28.258865 L 239.910431 28.235275 C 239.593781 28.234222 239.318542 28.333344 239.080353 28.528412 C 238.842148 28.723434 238.724457 29.023087 238.72316 29.414749 L 238.689316 39.615311 C 238.686707 40.402847 239.076996 40.800018 239.868744 40.802643 L 246.981735 40.826248 C 248.010788 40.829651 248.957809 40.536896 249.830612 39.94812 M 218.473785 91.601578 C 218.000504 91.124969 217.764786 90.574135 217.766891 89.940773 L 218.02652 11.678329 C 218.028595 11.049118 218.26799 10.495712 218.744415 10.022247 C 219.221085 9.548798 219.771927 9.313141 220.409363 9.315247 L 248.511017 9.408478 C 253.173828 9.423935 257.457916 10.488205 261.3638 12.592972 C 265.26944 14.701889 268.364532 17.537308 270.64447 21.103424 C 272.924408 24.669601 274.061829 28.506958 274.048187 32.615509 C 274.037689 35.778152 273.552887 38.701736 272.594025 41.386246 C 271.634918 44.070694 270.085175 46.478226 267.944824 48.604568 C 267.626862 48.920227 267.467438 49.294693 267.466003 49.728043 C 267.464539 50.165604 267.621643 50.499496 267.937744 50.738037 C 270.22345 52.566559 271.957336 54.922485 273.131104 57.809875 C 274.309265 60.701492 274.890778 63.728577 274.88031 66.88707 C 274.863251 72.029015 273.723297 76.529709 271.456085 80.393303 C 269.189087 84.260986 266.058105 87.234138 262.059235 89.316833 C 258.060364 91.399529 253.452667 92.430145 248.235657 92.412842 L 220.134003 92.319611 C 219.496567 92.317497 218.947311 92.078186 218.473785 91.601578"/>
    <path id="path2" fill="#22493f" stroke="none" d="M 287.01004 91.829796 C 286.536499 91.353188 286.300781 90.802353 286.302887 90.168991 L 286.5625 11.906479 C 286.564606 11.277267 286.803986 10.723862 287.28067 10.250473 C 287.757324 9.777008 288.308167 9.54129 288.941467 9.543396 L 305.54245 9.598465 C 306.175751 9.600555 306.729156 9.839951 307.202667 10.316559 C 307.675934 10.793106 307.911652 11.348099 307.909576 11.977295 L 307.649933 90.239807 C 307.647827 90.873169 307.408447 91.422424 306.932037 91.895882 C 306.455353 92.369278 305.900391 92.604988 305.26709 92.60289 L 288.666107 92.547813 C 288.032806 92.545715 287.483551 92.306343 287.01004 91.829796"/>
    <path id="path3" fill="#22493f" stroke="none" d="M 336.691101 92.231667 C 332.820862 90.718758 329.665619 88.491486 327.225159 85.558197 C 324.394623 82.152733 322.450775 77.737694 321.401825 72.321342 C 320.353149 66.900833 319.843353 59.844543 319.872223 51.148239 C 319.891083 45.456314 320.124023 40.519257 320.571289 36.328827 C 321.018524 32.142487 321.785065 28.407333 322.862823 25.131531 C 323.940369 21.855728 325.470581 19.073135 327.453278 16.787888 C 329.913177 13.870865 333.083099 11.664566 336.963287 10.177307 C 340.839355 8.690094 345.429474 7.951111 350.725586 7.968674 C 356.180145 7.986771 361.097717 9.069809 365.478302 11.221985 C 369.858887 13.37001 373.324066 16.444199 375.881592 20.444595 C 378.435242 24.444977 379.707306 29.132813 379.689453 34.508087 C 379.687347 35.14151 379.447968 35.694916 378.971313 36.164154 C 378.494904 36.637619 377.939911 36.873322 377.310516 36.871246 L 360.472229 36.815384 C 359.838928 36.813278 359.268677 36.573837 358.753662 36.097092 C 358.242767 35.624573 357.94455 35.069382 357.871704 34.435715 C 357.716675 33.410156 357.361237 32.517258 356.81366 31.765381 C 356.261963 31.013535 355.455597 30.414978 354.38623 29.978073 C 353.321014 29.541183 352.079834 29.316177 350.654785 29.311462 C 348.758789 29.305161 347.232971 29.579285 346.085144 30.129669 C 344.937317 30.680069 344.046997 31.543884 343.40976 32.72934 C 342.851898 33.835892 342.43457 35.255417 342.14978 36.992081 C 341.868835 38.732925 341.703308 40.865875 341.657562 43.395035 C 341.607422 45.924179 341.578033 48.532608 341.569122 51.220215 C 341.551025 56.674713 341.637299 60.766891 341.82431 63.492676 C 342.015198 66.222702 342.499756 68.378616 343.286255 69.960449 C 343.993927 71.387917 344.957184 72.457832 346.179932 73.170265 C 347.402649 73.886848 349.005707 74.250572 350.980774 74.257118 C 352.56012 74.26236 353.90271 73.950104 355.017365 73.320435 C 356.123688 72.690742 356.976746 71.805992 357.572327 70.662086 C 358.171844 69.518127 358.47226 68.15657 358.477509 66.573151 L 358.481445 65.38559 C 358.482758 64.993866 358.383881 64.693558 358.188507 64.49704 C 357.989197 64.300522 357.693634 64.19957 357.297882 64.198242 L 351.726624 64.179764 C 351.089172 64.177658 350.539917 63.938278 350.066406 63.461731 C 349.593109 62.985123 349.357391 62.434296 349.359497 61.800934 L 349.408661 46.979294 C 349.410767 46.345932 349.650146 45.792526 350.126587 45.319077 C 350.603241 44.845612 351.154083 44.609955 351.791534 44.612061 L 377.284546 44.69664 C 377.91394 44.69873 378.467346 44.938049 378.940643 45.414658 C 379.414154 45.891266 379.649872 46.446259 379.647766 47.079605 L 379.602905 60.596985 C 379.575653 68.818268 378.466034 75.435829 376.274353 80.445557 C 374.082672 85.459435 370.849487 89.065605 366.575317 91.264084 C 362.301178 93.46257 356.917877 94.553116 350.438416 94.531616 C 345.142303 94.514046 340.55719 93.744621 336.691101 92.231667"/>
    <path id="path4" fill="#22493f" stroke="none" d="M 249.818054 169.358887 C 250.728363 168.728531 251.423004 167.901611 251.90126 166.873962 C 252.379761 165.850449 252.620987 164.742844 252.624908 163.559448 C 252.628586 162.45105 252.394577 161.38356 251.922897 160.352753 C 251.451447 159.326157 250.741562 158.494568 249.797867 157.858078 C 248.849777 157.221573 247.742432 156.901184 246.47998 156.896988 L 239.483688 156.873779 C 239.167038 156.872742 238.8918 156.971863 238.65361 157.16687 C 238.41539 157.366089 238.297714 157.661545 238.296402 158.057404 L 238.259827 169.082993 C 238.258774 169.399689 238.374557 169.67511 238.611328 169.913376 C 238.848083 170.151718 239.122589 170.273422 239.439224 170.27446 L 246.435532 170.297668 C 247.777313 170.302124 248.907516 169.989227 249.818054 169.358887 M 249.505753 137.876648 C 250.378571 137.283661 251.052017 136.515015 251.530258 135.57074 C 252.008255 134.622238 252.249207 133.597946 252.252884 132.489563 C 252.258377 130.831177 251.730042 129.366837 250.667343 128.096527 C 249.604889 126.830414 248.281799 126.192657 246.698563 126.187408 L 239.585571 126.163811 C 239.268921 126.162758 238.993683 126.261879 238.755478 126.456894 C 238.517288 126.65197 238.399597 126.95163 238.3983 127.343285 L 238.364456 137.543854 C 238.361847 138.33139 238.752136 138.728561 239.543869 138.731186 L 246.656876 138.754776 C 247.685913 138.758194 248.632935 138.465439 249.505753 137.876648 M 218.148911 189.530121 C 217.675644 189.053513 217.439926 188.50267 217.442017 187.869308 L 217.701645 109.606804 C 217.703735 108.977661 217.943115 108.424248 218.419556 107.95079 C 218.896225 107.477333 219.447052 107.241615 220.084503 107.243729 L 248.186157 107.336952 C 252.848969 107.352417 257.133057 108.416748 261.03894 110.521515 C 264.94455 112.630424 268.039673 115.465843 270.319611 119.03196 C 272.599518 122.598137 273.736938 126.435486 273.723328 130.543976 C 273.71283 133.706696 273.228027 136.630264 272.269165 139.314728 C 271.310059 141.999237 269.760315 144.406769 267.619965 146.533112 C 267.302002 146.848755 267.142548 147.223236 267.141113 147.656586 C 267.139679 148.094147 267.296783 148.427979 267.612885 148.66658 C 269.89856 150.495087 271.632477 152.851013 272.806244 155.738403 C 273.984406 158.630035 274.565918 161.65712 274.55542 164.815613 C 274.538391 169.95755 273.398438 174.458252 271.131226 178.321777 C 268.864227 182.189529 265.733246 185.162674 261.734375 187.245377 C 257.735504 189.328064 253.127808 190.358688 247.910797 190.34137 L 219.809143 190.248154 C 219.171692 190.246033 218.622437 190.006729 218.148911 189.530121"/>
    <path id="path5" fill="#22493f" stroke="none" d="M 318.924225 140.41835 C 319.834503 139.867172 320.528625 139.119415 321.006866 138.170914 C 321.485107 137.226639 321.726074 136.119034 321.730286 134.856461 C 321.736572 132.956329 321.208496 131.412811 320.145538 130.225876 C 319.078674 129.03476 317.639008 128.438324 315.822113 128.432281 L 308.7052 128.408691 C 308.388306 128.407623 308.113068 128.506683 307.874878 128.701767 C 307.636658 128.900986 307.518982 129.196442 307.5177 129.588165 L 307.483063 140.026215 C 307.480438 140.813751 307.870972 141.210846 308.66272 141.213486 L 315.779633 141.237091 C 316.962982 141.241013 318.013916 140.969543 318.924225 140.41835 M 286.683472 189.756195 C 286.210175 189.283798 285.978607 188.728821 285.980713 188.095459 L 286.240326 109.837105 C 286.242432 109.203751 286.477661 108.650322 286.954102 108.176865 C 287.430756 107.703407 287.985748 107.467758 288.619049 107.469864 L 316.128906 107.561119 C 321.82077 107.580002 326.754791 108.783943 330.938782 111.168808 C 335.118652 113.553658 338.291229 116.806084 340.45285 120.926003 C 342.610107 125.041763 343.682281 129.70813 343.664978 134.92923 C 343.650024 139.433594 342.765808 143.385101 341.016998 146.775375 C 339.268188 150.1698 336.728424 153.324051 333.397675 156.23819 C 332.603607 156.943924 332.184875 157.538422 332.145935 158.013336 C 332.102631 158.484024 332.27948 159.197205 332.672058 160.148514 L 343.018768 186.505371 C 343.489929 187.694504 343.545013 188.682236 343.188141 189.472809 C 342.831268 190.259171 342.059204 190.652481 340.87146 190.648544 L 324.391571 190.593872 C 323.520477 190.590988 322.850372 190.430374 322.376312 190.112152 C 321.902252 189.798004 321.549591 189.321869 321.314392 188.687653 L 311.438232 162.449066 C 311.281097 162.052734 311.106934 161.793793 310.907349 161.676422 C 310.711945 161.554932 310.453857 161.495773 310.137207 161.49472 L 308.595459 161.489609 C 308.278564 161.488556 308.003326 161.587631 307.765137 161.7827 C 307.526917 161.981918 307.409241 162.277374 307.407928 162.673248 L 307.323364 188.16626 C 307.321259 188.799622 307.081879 189.353027 306.605469 189.822281 C 306.128784 190.295731 305.573822 190.531448 304.944672 190.529358 L 288.343689 190.474289 C 287.710388 190.472183 287.156982 190.232803 286.683472 189.756195"/>
    <path id="path6" fill="#22493f" stroke="none" d="M 367.912262 189.43483 C 363.568756 187.366089 360.104309 184.150238 357.510345 179.795532 C 354.916138 175.440781 353.630035 169.98201 353.651825 163.419189 L 353.828827 110.058029 C 353.830933 109.428818 354.070313 108.875412 354.542816 108.401939 C 355.019257 107.928482 355.574249 107.692833 356.207764 107.694931 L 372.808502 107.750008 C 373.437653 107.75209 373.991058 107.991417 374.4646 108.468025 C 374.93811 108.944633 375.173828 109.499619 375.171722 110.12883 L 374.994324 163.606628 C 374.989594 165.031723 375.281006 166.316086 375.868988 167.463974 C 376.461121 168.611816 377.324799 169.527222 378.468323 170.20192 C 379.612091 170.876617 380.973511 171.218658 382.556976 171.223923 C 384.927826 171.231781 386.830322 170.525497 388.255951 169.105179 C 389.681549 167.688934 390.400208 165.874542 390.407562 163.657761 L 390.584961 110.179962 C 390.587067 109.550751 390.826447 108.997345 391.303131 108.523888 C 391.779541 108.05043 392.330383 107.814766 392.963684 107.816864 L 409.564667 107.871941 C 410.197968 107.874039 410.751373 108.113365 411.224884 108.589973 C 411.694244 109.066574 411.929962 109.621559 411.927887 110.250763 L 411.750854 163.611923 C 411.729095 170.174744 410.410706 175.624878 407.783752 179.962311 C 405.16095 184.299713 401.654236 187.492432 397.259766 189.532196 C 392.865021 191.571884 387.940491 192.584793 382.486176 192.566696 C 377.110962 192.548859 372.251617 191.503494 367.912262 189.43483"/>
    <path id="path7" fill="#22493f" stroke="none" d="M 426.130188 190.220505 C 425.656677 189.743881 425.420959 189.193054 425.423065 188.559692 L 425.682678 110.297188 C 425.684753 109.667976 425.924164 109.114571 426.400818 108.641174 C 426.877258 108.167717 427.42807 107.931992 428.061371 107.934097 L 472.29306 108.080826 C 472.922211 108.082916 473.475616 108.322304 473.949158 108.798912 C 474.422424 109.275459 474.658142 109.830444 474.656036 110.459648 L 474.602539 126.585541 C 474.600433 127.218895 474.361053 127.772308 473.884644 128.245758 C 473.40799 128.715012 472.852997 128.950714 472.223846 128.948639 L 448.151703 128.868774 C 447.835052 128.867722 447.559601 128.966797 447.321381 129.166016 C 447.083191 129.361084 446.965729 129.656525 446.964417 130.052399 L 446.94043 137.286133 C 446.937805 138.07782 447.328094 138.470825 448.119843 138.47345 L 471.241791 138.550171 C 471.875336 138.552261 472.428741 138.791595 472.897858 139.268188 C 473.371399 139.744797 473.607086 140.299774 473.60498 140.933136 L 473.551514 157.05896 C 473.549408 157.692383 473.310028 158.241577 472.833344 158.715042 C 472.361084 159.188507 471.806091 159.424164 471.172546 159.422058 L 448.050598 159.345352 C 447.733948 159.344299 447.458496 159.44342 447.220276 159.638504 C 446.982086 159.837723 446.864655 160.133179 446.863342 160.524841 L 446.835419 168.946106 C 446.832764 169.737854 447.223083 170.130814 448.014832 170.133438 L 472.561798 170.214874 C 473.191193 170.216965 473.744598 170.456345 474.217896 170.932892 C 474.691406 171.4095 474.927094 171.964493 474.925018 172.597839 L 474.871521 188.72374 C 474.869415 189.357086 474.630035 189.906357 474.153381 190.379807 C 473.676941 190.85321 473.121948 191.088913 472.492554 191.086823 L 427.786011 190.938522 C 427.15274 190.936417 426.603455 190.697052 426.130188 190.220505"/>
</svg>
