<?xml version="1.0" encoding="UTF-8"?>
<!-- Generated by Pixelmator Pro 3.7.1 -->
<svg width="1774" height="597" viewBox="0 0 1774 597" xmlns="http://www.w3.org/2000/svg">
    <path id="Path" fill="#22493f" stroke="none" d="M 111.606445 97.872803 C 106.635254 87.68042 100.284912 76.759033 101.57666 64.974854 L 116.55249 64.974854 Z M 507.292236 101.210449 C 506.70459 107.781494 499.404297 124.570068 495.216309 129.782959 C 492.799561 132.791504 492.124512 131.587158 491.149414 128.382813 C 489.386963 122.570068 489.720215 112.957031 490.182861 106.831543 C 491.237061 92.82251 494.870605 79.263184 498.470703 65.774902 C 498.50415 65.74585 499.079102 66.033447 499.1875 66.133301 C 501.150146 67.975098 504.554443 81.484131 505.291992 84.759521 C 506.446289 89.893066 507.758789 95.95166 507.292236 101.210449 M 523.872314 122.070068 C 524.293213 121.703369 528.439209 118.432129 528.689209 118.732178 C 528.722656 120.244873 528.989258 121.619873 528.968506 123.157471 C 528.668457 147.638184 530.230957 172.15625 529.505859 196.703369 C 529.372559 201.199707 528.739258 205.816406 528.664307 210.333496 C 528.618408 213.287842 530.214355 215.52124 526.07666 216.542236 C 523.705566 217.129639 516.509277 217.154785 514.130127 216.604736 C 512.946533 216.32959 511.671631 212.446045 511.234131 211.208496 C 508.275635 202.85376 507.500488 193.89502 505.608643 185.273682 C 502.962646 173.227051 501.225098 170.314453 504.217041 157.505371 C 507.45459 143.64624 513.013428 131.54541 523.872314 122.070068 M 516.059326 85.105225 C 515.871826 85.455322 515.646729 85.838623 515.188477 85.838623 C 514.992676 85.838623 513.867432 82.646729 513.709229 82.230225 C 511.650635 76.725586 510.563232 70.866943 510.504883 64.974854 L 524.143066 64.974854 Z M 528.968506 96.38916 C 528.834961 103.364746 530.051758 105.614746 524.414063 110.577637 C 523.788818 111.127686 520.234619 113.994385 519.601318 113.381836 L 527.672607 88.159668 C 527.730713 87.68457 528.647461 87.542969 528.935059 87.734619 C 529.864258 88.351318 528.693359 93.409912 528.680908 94.539063 C 528.672607 95.180908 528.980957 95.76001 528.968506 96.38916 M 477.340332 64.974854 L 481.886475 64.974854 C 482.174072 65.258301 480.569824 72.116943 480.273926 72.854492 C 480.103027 73.291992 479.919678 73.796387 479.348877 73.800537 C 478.898682 73.808838 477.648682 65.8125 477.340332 64.974854 M 162.151123 339.907715 C 180.077148 333.17395 198.844971 328.457031 217.170898 322.98584 C 248.477051 313.639526 285.74585 309.222534 314.914307 295.830078 C 318.960205 293.97168 323.585449 291.825684 325.977295 287.89209 C 321.831299 282.983643 315.114258 279.74585 309.05542 277.791504 C 290.462891 271.799561 269.311523 272.899658 250.2771 267.836914 C 245.943604 266.682617 236.67627 264.078369 236.384521 258.702881 C 236.23877 256.01123 242.243164 254.094238 244.397461 253.394287 C 256.556641 249.42334 271.919922 247.527344 284.68335 245.806396 C 311.422363 242.197754 339.799072 239.168457 366.738037 237.730957 C 367.171387 237.709961 368.571533 237.535156 368.754883 238.01001 C 365.696289 238.505859 362.246094 238.797607 359.279297 239.631104 C 356.75415 240.339355 353.999756 241.677002 351.428955 242.481201 C 342.33252 245.3396 333.181885 247.514893 324.035645 250.123291 C 322.356201 250.602539 313.909912 253.002686 313.251709 254.056885 C 312.784912 254.802734 313.755859 256.486084 314.372559 256.961182 C 316.860107 258.898682 326.689941 260.236328 330.148438 260.707275 C 361.183594 264.953369 394.447998 263.257324 424.591553 272.441162 C 429.99585 274.087158 442.755127 278.695801 446.005127 283.125244 C 456.776611 297.809326 436.025391 306.043213 425.449951 310.347656 C 402.698486 319.610718 378.584717 324.644287 357.654297 338.032593 C 351.266357 342.120361 344.449219 346.720581 342.719971 354.66272 C 341.674072 359.475464 342.365723 361.454834 346.161865 364.509155 C 350.557861 368.051025 360.950195 370.730347 366.617188 372.405518 C 398.669189 381.872681 431.875244 387.210449 464.172852 396.806885 C 487.224365 403.653076 509.983887 411.015991 528.814209 426.575317 C 529.339355 427.008667 530.889404 428.100342 531.043457 428.625366 L 531.043457 503.133911 C 518.563721 515.022095 504.025391 524.501831 489.245117 533.277344 L 142.229004 533.277344 L 158.47583 525.043579 C 169.993164 518.634888 182.131348 512.847046 193.76123 506.309082 C 209.524658 497.446045 226.771484 487.449707 240.776611 476.036499 C 245.414307 472.25708 257.373291 461.81897 256.415039 455.331177 C 255.98999 452.439331 250.293701 448.09314 247.956055 446.40564 C 223.163086 428.512939 188.427734 420.599976 159.40918 411.657715 C 143.466553 406.744995 109.772949 396.819336 115.181641 374.243042 C 119.269531 357.187866 147.246094 345.503906 162.151123 339.907715 M 393.893799 81.959229 C 393.485596 76.296387 392.310303 70.671143 392.293701 64.974854 L 400.448486 64.974854 C 409.436279 75.158936 421.10791 87.709717 425.258057 100.876953 C 430.900146 118.765625 431.212646 139.791748 434.900391 158.36377 C 437.192139 169.901855 442.35083 181.619385 443.10498 193.486572 C 443.334229 197.082764 443.484131 198.445313 439.892334 196.699219 C 433.337891 193.503418 427.087402 188.215576 420.724609 184.57373 C 417.795166 182.898438 414.565918 181.694336 411.636475 180.023438 C 407.044678 177.402344 406.62793 175.814697 404.365234 171.247803 C 397.473145 157.326172 391.477051 142.14624 391.210449 126.365967 C 390.9646 111.648438 394.939697 96.44751 393.893799 81.959229 M 350.037109 64.974854 L 382.930664 64.974854 L 384.01416 79.804932 C 384.226563 87.163818 383.955811 102.552246 381.263916 109.17334 C 380.23877 111.698486 380.084717 111.861084 378.542969 109.61499 C 376.517822 106.668945 375.163574 102.7771 373.351074 99.564453 C 370.446533 94.414063 366.800537 88.943115 363.52124 83.984375 C 359.216797 77.483887 354.503906 71.346191 350.037109 64.974854 M 380.443115 151.309082 C 381.109863 154.617676 381.655518 157.859619 381.326416 161.255615 C 373.842529 157.842773 366.763184 153.384277 361.133545 147.350586 C 344.632568 129.682861 333.227783 105.560547 323.510498 83.609375 C 322.931396 82.296875 320.397949 76.988037 320.3479 76.050537 C 320.289551 75.004639 323.727295 71.808594 324.623047 70.987793 C 326.910645 68.895996 329.535889 67.166748 331.861084 65.116699 C 332.490234 64.866699 336.06958 64.845703 336.657227 65.112549 C 337.182129 65.349854 341.061523 69.904297 341.736572 70.729492 C 343.874268 73.337891 345.911865 76.292236 347.845215 79.063232 C 364.067139 102.272949 374.771973 123.195068 380.443115 151.309082 M 238.42627 127.607666 C 255.36084 115.586182 273.795166 107.006592 291.012695 95.94751 C 292.787842 94.805908 297.121582 90.901367 298.79248 90.938965 C 301.10083 90.989014 304.055176 94.485107 305.646973 96.122559 C 308.518066 99.085205 311.630615 102.502197 314.334961 105.623047 C 317.510254 109.285889 318.776855 111.594238 321.310303 115.498779 C 323.210449 118.432129 326.319092 121.357422 328.477539 124.378418 C 339.073975 139.175049 343.011719 156.876221 358.358398 167.776855 C 364.296143 171.997803 370.85498 175.306396 376.759521 179.598389 C 381.880615 183.323486 386.518311 187.707031 391.518799 191.582275 C 402.581787 200.157959 416.786865 208.116699 425.862305 218.754883 C 426.479004 219.479736 429.695801 223.638428 428.93335 224.371826 C 423.912354 224.834229 418.862061 224.775879 413.865723 225.488525 C 396.639893 227.938721 379.022217 235.630859 361.437744 233.701416 C 355.675049 233.068115 349.991211 231.597168 344.249268 230.826416 C 328.98999 228.771973 313.493408 229.017822 298.367432 225.896973 C 288.958496 223.955078 279.60376 220.60498 269.932373 220.096436 C 258.410889 219.492432 246.710205 222.821777 235.155273 222.246582 C 228.47998 221.91333 221.558838 220.017334 214.837402 220.075684 C 206.770264 220.142334 198.428223 222.771729 190.223633 222.246582 C 186.314941 221.992432 182.589844 220.492432 178.702148 220.129883 C 177.272705 219.992432 167.034668 219.950684 166.813965 218.854736 C 167.601318 214.621094 169.834961 210.808594 171.872559 207.074951 C 189.594482 174.606445 207.974609 149.221436 238.42627 127.607666 M 212.516602 93.672363 C 212.274902 94.064209 210.012207 97.897705 209.628906 97.601807 C 208.866211 93.518311 207.120361 89.663818 206.22876 85.62207 C 204.645264 78.467285 205.757813 71.971191 207.487061 64.974854 L 226.475586 64.974854 C 222.629639 74.750488 217.996094 84.692871 212.516602 93.672363 M 287.595947 79.40918 C 288.008545 79.79248 290.371094 81.996826 290.125244 82.355225 C 285.616699 85.301025 281.366455 88.563721 276.666016 91.230713 C 260.919434 100.164551 243.589111 106.548096 228.796631 117.177979 C 226.038086 119.157227 219.537842 125.27002 216.858398 126.099365 C 215.033447 126.661865 214.962402 125.978516 215.304199 124.27417 C 215.854248 121.553223 219.208496 116.577881 220.554443 113.744385 C 228.084229 97.876953 233.580322 80.85498 241.44751 65.104004 L 267.198975 65.037354 C 273.870117 69.704346 281.604004 73.871338 287.595947 79.40918 M 313.493408 81.309326 C 314.159912 81.53418 317.593506 92.447266 317.139404 93.055664 C 315.01416 92.755615 308.393066 87.222168 307.917969 85.567871 C 307.626221 84.559326 312.284912 80.900879 313.493408 81.309326 M 303.046875 74.283936 C 302.017578 74.937988 299.421631 76.433838 298.28418 76.438232 C 296.171387 76.446533 288.621094 70.346191 287.050049 68.454346 L 284.512451 64.974854 L 304.971924 64.974854 C 305.43042 65.841553 308.218018 69.729492 307.92627 70.316895 C 307.601318 70.967041 303.884277 73.754639 303.046875 74.283936 M 186.356689 64.974854 L 194.648926 64.974854 L 195.715576 75.404785 C 193.423828 73.07959 190.752686 70.937744 188.627686 68.454346 C 187.765137 67.445801 186.79834 66.233398 186.356689 64.974854 M 196.394775 97.060059 C 200.753418 121.015625 186.623291 138.345947 175.014404 157.267822 C 170.19751 165.114258 165.859619 173.227051 160.521729 180.748291 C 158.700928 183.315186 156.22168 185.894531 154.579834 188.44873 C 154.142334 189.123779 153.638184 191.569824 152.45874 190.340576 C 151.254639 189.086426 153.167236 179.406738 153.546387 177.252441 C 154.871582 169.701904 156.780029 162.372314 157.47168 154.700928 C 159.676025 130.253662 160.746826 105.473145 168.101318 81.884277 C 168.763916 79.754883 173.810059 65.4375 175.035156 65.016602 C 175.376953 64.899902 179.177002 64.904053 179.360352 65.016602 C 179.485352 65.095703 180.331299 67.141846 180.631348 67.625 C 186.827637 77.684082 194.144531 84.717773 196.394775 97.060059 M 87.85083 213.45874 C 87.684326 214.39209 87.213379 217.104736 86.825928 217.775635 C 86.580078 218.196533 86.384033 218.154785 86.017578 218.304688 C 83.696533 219.246582 77.750244 220.22998 75.266846 220.059082 C 74.291748 219.992432 67.462158 218.792236 67.137207 218.425537 C 66.98291 218.054688 66.912109 217.650635 66.845459 217.254639 C 66.224609 213.566895 66.10791 208.524902 65.995361 204.724854 C 65.445313 185.865479 65.820557 166.868408 65.462158 148.025635 C 65.428711 146.217285 65.462158 141.446045 66.516357 140.016846 C 66.695557 139.779297 67.187256 139.779297 67.328857 139.871094 C 67.458008 139.950195 67.637207 141.496094 67.820557 141.921143 C 68.474854 143.425293 69.749756 145.096191 70.516602 146.717285 C 74.037598 154.146729 76.075195 162.022217 79.33374 169.460205 C 80.433838 171.977051 82.046387 174.4104 83.171387 176.852295 C 87.546631 186.348633 89.709229 203.224609 87.85083 213.45874 M 65.741211 64.974854 L 71.758301 64.974854 C 78.871094 72.804688 84.91748 80.696777 88.921875 90.601563 C 96.247314 108.73584 102.418457 129.932861 100.239014 149.617432 C 100.155762 150.367432 99.44751 155.384521 98.768311 155.367676 L 86.679932 136.170898 C 82.192139 124.64917 76.087646 113.861084 71.041504 102.5979 C 68.803955 97.601807 65.053711 89.993164 64.657959 84.642822 C 64.174561 78.059082 66.128906 71.554443 65.741211 64.974854 M 17.051025 576.271484 L 574.383545 576.271484 L 574.383545 18.938965 L 17.051025 18.938965 Z"/>
    <path id="path1" fill="#22493f" stroke="none" d="M 714.739746 165.76001 C 716.831543 164.305664 718.42749 162.393066 719.519043 160.026367 C 720.61084 157.659424 721.156738 155.109375 721.156738 152.375977 C 721.156738 149.829834 720.61084 147.371338 719.519043 145.004639 C 718.42749 142.637939 716.785645 140.729492 714.602295 139.266846 C 712.418701 137.8125 709.864502 137.083252 706.955811 137.083252 L 690.842529 137.083252 C 690.113281 137.083252 689.47583 137.3125 688.929932 137.766602 C 688.384033 138.220947 688.113037 138.904297 688.113037 139.812744 L 688.113037 165.214111 C 688.113037 165.943359 688.384033 166.580811 688.929932 167.126709 C 689.47583 167.672607 690.113281 167.943359 690.842529 167.943359 L 706.955811 167.943359 C 710.047852 167.943359 712.643799 167.218506 714.739746 165.76001 M 713.78125 93.247314 C 715.785645 91.880615 717.335693 90.105469 718.42749 87.922119 C 719.519043 85.73877 720.064941 83.371826 720.064941 80.821777 C 720.064941 76.996582 718.835693 73.629639 716.377197 70.717041 C 713.923096 67.804199 710.868652 66.345947 707.226807 66.345947 L 690.842529 66.345947 C 690.113281 66.345947 689.47583 66.574951 688.929932 67.029297 C 688.384033 67.483398 688.113037 68.166748 688.113037 69.075195 L 688.113037 92.563965 C 688.113037 94.38916 689.017334 95.297607 690.842529 95.297607 L 707.226807 95.297607 C 709.593506 95.297607 711.7771 94.614258 713.78125 93.247314 M 641.956299 212.462646 C 640.860352 211.371094 640.314453 210.100098 640.314453 208.637451 L 640.314453 28.381104 C 640.314453 26.926758 640.860352 25.651855 641.956299 24.560059 C 643.048096 23.468262 644.318848 22.922363 645.777344 22.922363 L 710.506104 22.922363 C 721.248535 22.922363 731.124023 25.335205 740.136963 30.15625 C 749.150146 34.985596 756.296387 41.494385 761.575684 49.686523 C 766.859375 57.878662 769.501221 66.712646 769.501221 76.179688 C 769.501221 83.463623 768.405273 90.201416 766.221924 96.38916 C 764.03418 102.581299 760.488281 108.131592 755.571289 113.048584 C 754.837891 113.777832 754.475342 114.644531 754.475342 115.644531 C 754.475342 116.644531 754.837891 117.419678 755.571289 117.965576 C 760.85083 122.15332 764.855225 127.570313 767.588623 134.216553 C 770.317871 140.862793 771.684814 147.829834 771.684814 155.109375 C 771.684814 166.94751 769.088623 177.323242 763.900879 186.244629 C 758.708984 195.166016 751.516846 202.04126 742.324707 206.862305 C 733.128174 211.691895 722.523438 214.100342 710.506104 214.100342 L 645.777344 214.100342 C 644.318848 214.100342 643.048096 213.554443 641.956299 212.462646"/>
    <path id="path2" fill="#22493f" stroke="none" d="M 799.810547 212.462646 C 798.71875 211.371094 798.172852 210.100098 798.172852 208.637451 L 798.172852 28.381104 C 798.172852 26.926758 798.71875 25.651855 799.810547 24.560059 C 800.902344 23.468262 802.173096 22.922363 803.635742 22.922363 L 841.871338 22.922363 C 843.325684 22.922363 844.600586 23.468262 845.692383 24.560059 C 846.78833 25.651855 847.334229 26.926758 847.334229 28.381104 L 847.334229 208.637451 C 847.334229 210.100098 846.78833 211.371094 845.692383 212.462646 C 844.600586 213.554443 843.325684 214.100342 841.871338 214.100342 L 803.635742 214.100342 C 802.173096 214.100342 800.902344 213.554443 799.810547 212.462646"/>
    <path id="path3" fill="#22493f" stroke="none" d="M 914.242676 213.009521 C 905.321289 209.551025 898.037598 204.450684 892.391357 197.712646 C 885.836914 189.887207 881.332275 179.736572 878.878174 167.260986 C 876.419678 154.793457 875.19043 138.54248 875.19043 118.512207 C 875.19043 105.403076 875.686279 94.023193 876.69043 84.372803 C 877.686279 74.722168 879.419678 66.121582 881.878174 58.562988 C 884.33667 51.008301 887.841064 44.591309 892.391357 39.307617 C 898.037598 32.573975 905.321289 27.473633 914.242676 24.010986 C 923.164063 20.556396 933.7229 18.822998 945.923584 18.822998 C 958.486816 18.822998 969.824951 21.281494 979.925537 26.198486 C 990.034668 31.115479 998.043457 38.174316 1003.9646 47.366455 C 1009.877441 56.562744 1012.835938 67.35083 1012.835938 79.726563 C 1012.835938 81.189209 1012.290039 82.460205 1011.198242 83.551758 C 1010.106689 84.643555 1008.831543 85.189453 1007.377197 85.189453 L 968.595703 85.189453 C 967.133301 85.189453 965.816406 84.643555 964.633057 83.551758 C 963.445557 82.460205 962.762207 81.189209 962.583008 79.726563 C 962.220459 77.364014 961.399658 75.318115 960.128662 73.584717 C 958.849365 71.855225 956.986816 70.488525 954.52832 69.488525 C 952.069824 68.488525 949.203125 67.984375 945.923584 67.984375 C 941.556641 67.984375 938.048096 68.625977 935.410645 69.896973 C 932.768799 71.171875 930.718506 73.17627 929.264404 75.905518 C 927.989258 78.455811 927.035156 81.735107 926.397461 85.739502 C 925.755859 89.743896 925.393311 94.660889 925.305664 100.486084 C 925.209961 106.315674 925.168213 112.324463 925.168213 118.512207 C 925.168213 131.075439 925.393311 140.496826 925.851563 146.776367 C 926.301758 153.060059 927.443359 158.022949 929.264404 161.664795 C 930.901855 164.939941 933.131348 167.398438 935.956299 169.036133 C 938.777344 170.677734 942.465088 171.494629 947.015381 171.494629 C 950.657227 171.494629 953.749023 170.769531 956.303467 169.311035 C 958.849365 167.856689 960.812012 165.806641 962.174561 163.164795 C 963.54126 160.5271 964.224609 157.389404 964.224609 153.743408 L 964.224609 151.01001 C 964.224609 150.101563 963.991455 149.422363 963.54126 148.964111 C 963.083008 148.509766 962.399658 148.280762 961.491211 148.280762 L 948.657227 148.280762 C 947.19458 148.280762 945.923584 147.734863 944.832031 146.643066 C 943.740234 145.547119 943.194336 144.276367 943.194336 142.817871 L 943.194336 108.678223 C 943.194336 107.224121 943.740234 105.948975 944.832031 104.857178 C 945.923584 103.761475 947.19458 103.215576 948.657227 103.215576 L 1007.377197 103.215576 C 1008.831543 103.215576 1010.106689 103.761475 1011.198242 104.857178 C 1012.290039 105.948975 1012.835938 107.224121 1012.835938 108.678223 L 1012.835938 139.813477 C 1012.835938 158.752197 1010.331543 173.998779 1005.327148 185.562012 C 1000.318604 197.125244 992.901367 205.454834 983.067383 210.551025 C 973.237793 215.647217 960.849609 218.197266 945.923584 218.197266 C 933.7229 218.197266 923.164063 216.463867 914.242676 213.009521"/>
    <path id="path4" fill="#22493f" stroke="none" d="M 714.739746 391.317749 C 716.831543 389.863525 718.42749 387.950928 719.519043 385.584106 C 720.61084 383.217285 721.156738 380.667236 721.156738 377.937866 C 721.156738 375.387695 720.61084 372.929199 719.519043 370.562378 C 718.42749 368.195557 716.785645 366.287231 714.602295 364.824585 C 712.418701 363.370361 709.864502 362.641113 706.955811 362.641113 L 690.842529 362.641113 C 690.113281 362.641113 689.47583 362.870361 688.929932 363.324463 C 688.384033 363.778687 688.113037 364.462036 688.113037 365.370483 L 688.113037 390.771973 C 688.113037 391.501099 688.384033 392.138672 688.929932 392.68457 C 689.47583 393.230469 690.113281 393.501221 690.842529 393.501221 L 706.955811 393.501221 C 710.047852 393.501221 712.643799 392.776245 714.739746 391.317749 M 713.78125 318.805176 C 715.785645 317.438477 717.335693 315.66333 718.42749 313.479858 C 719.519043 311.296509 720.064941 308.929688 720.064941 306.379395 C 720.064941 302.554199 718.835693 299.1875 716.377197 296.274658 C 713.923096 293.362061 710.868652 291.903564 707.226807 291.903564 L 690.842529 291.903564 C 690.113281 291.903564 689.47583 292.132813 688.929932 292.586914 C 688.384033 293.04126 688.113037 293.724609 688.113037 294.633057 L 688.113037 318.121826 C 688.113037 319.946899 689.017334 320.855347 690.842529 320.855347 L 707.226807 320.855347 C 709.593506 320.855347 711.7771 320.171997 713.78125 318.805176 M 641.956299 438.020508 C 640.860352 436.928833 640.314453 435.657959 640.314453 434.195313 L 640.314453 253.943115 C 640.314453 252.484619 640.860352 251.209717 641.956299 250.11792 C 643.048096 249.026123 644.318848 248.480225 645.777344 248.480225 L 710.506104 248.480225 C 721.248535 248.480225 731.124023 250.892822 740.136963 255.714111 C 749.150146 260.543457 756.296387 267.052246 761.575684 275.244385 C 766.859375 283.436523 769.501221 292.270264 769.501221 301.737549 C 769.501221 309.021362 768.405273 315.759155 766.221924 321.947021 C 764.03418 328.13916 760.488281 333.689453 755.571289 338.606445 C 754.837891 339.335571 754.475342 340.202271 754.475342 341.202393 C 754.475342 342.202393 754.837891 342.977417 755.571289 343.523315 C 760.85083 347.71106 764.855225 353.128052 767.588623 359.774292 C 770.317871 366.420532 771.684814 373.387573 771.684814 380.667236 C 771.684814 392.505371 769.088623 402.880981 763.900879 411.802368 C 758.708984 420.723633 751.516846 427.599121 742.324707 432.420166 C 733.128174 437.249634 722.523438 439.658081 710.506104 439.658081 L 645.777344 439.658081 C 644.318848 439.658081 643.048096 439.112305 641.956299 438.020508"/>
    <path id="path5" fill="#22493f" stroke="none" d="M 873.688965 324.132202 C 875.780762 322.861328 877.372559 321.127808 878.468506 318.944458 C 879.560303 316.756714 880.105957 314.210815 880.105957 311.293945 C 880.105957 306.927002 878.876709 303.376709 876.418457 300.643311 C 873.959961 297.914063 870.634766 296.547363 866.451172 296.547363 L 850.062744 296.547363 C 849.333496 296.547363 848.699951 296.776367 848.149902 297.230713 C 847.604248 297.684814 847.333252 298.368164 847.333252 299.280762 L 847.333252 323.311279 C 847.333252 325.136475 848.241699 326.0448 850.062744 326.0448 L 866.451172 326.0448 C 869.18457 326.0448 871.593018 325.407227 873.688965 324.132202 M 799.80957 438.022217 C 798.718018 436.93042 798.172119 435.655396 798.172119 434.197021 L 798.172119 253.940674 C 798.172119 252.486328 798.718018 251.211182 799.80957 250.119629 C 800.905518 249.023682 802.172363 248.477783 803.63501 248.477783 L 866.99707 248.477783 C 880.105957 248.477783 891.481689 251.211182 901.136475 256.669922 C 910.782959 262.132813 918.112549 269.604004 923.121094 279.067139 C 928.125488 288.53833 930.634033 299.280762 930.634033 311.293945 C 930.634033 321.673706 928.625488 330.782593 924.625244 338.608032 C 920.616699 346.437622 914.791504 353.721436 907.14502 360.4552 C 905.324219 362.092773 904.365723 363.459473 904.27832 364.55127 C 904.182373 365.642944 904.59082 367.284668 905.507568 369.46814 L 929.538086 430.100952 C 930.634033 432.8302 930.767334 435.109497 929.950684 436.93042 C 929.129639 438.751465 927.354736 439.65979 924.625244 439.65979 L 886.660645 439.65979 C 884.65625 439.65979 883.110352 439.297241 882.018555 438.568115 C 880.927002 437.843018 880.105957 436.74707 879.560303 435.288696 L 856.617188 374.93103 C 856.250488 374.022583 855.842041 373.430908 855.387939 373.155884 C 854.933838 372.880859 854.337891 372.747559 853.612793 372.747559 L 850.062744 372.747559 C 849.333496 372.747559 848.699951 372.976685 848.149902 373.430908 C 847.604248 373.885132 847.333252 374.568481 847.333252 375.476929 L 847.333252 434.197021 C 847.333252 435.655396 846.787354 436.93042 845.69165 438.022217 C 844.599854 439.113892 843.324707 439.65979 841.870361 439.65979 L 803.63501 439.65979 C 802.172363 439.65979 800.905518 439.113892 799.80957 438.022217"/>
    <path id="path6" fill="#22493f" stroke="none" d="M 986.896484 436.655518 C 976.87915 431.921875 968.870361 424.546387 962.861816 414.533325 C 956.853027 404.520264 953.848633 391.957031 953.848633 376.843628 L 953.848633 253.940674 C 953.848633 252.486328 954.398682 251.211182 955.486328 250.115479 C 956.582275 249.023682 957.853027 248.477783 959.311523 248.477783 L 997.547119 248.477783 C 999.001465 248.477783 1000.280518 249.023682 1001.372314 250.115479 C 1002.464111 251.211182 1003.01001 252.486328 1003.01001 253.940674 L 1003.01001 377.114502 C 1003.01001 380.393799 1003.693359 383.356445 1005.060059 385.994141 C 1006.422607 388.631836 1008.427002 390.727783 1011.064453 392.273682 C 1013.702148 393.82373 1016.843994 394.594604 1020.48999 394.594604 C 1025.952881 394.594604 1030.319824 392.957031 1033.599121 389.677734 C 1036.874512 386.402466 1038.516113 382.214722 1038.516113 377.114502 L 1038.516113 253.940674 C 1038.516113 252.486328 1039.062012 251.211182 1040.153809 250.115479 C 1041.245605 249.023682 1042.516357 248.477783 1043.974854 248.477783 L 1082.2146 248.477783 C 1083.668701 248.477783 1084.943848 249.023682 1086.035645 250.115479 C 1087.127441 251.211182 1087.673096 252.486328 1087.673096 253.940674 L 1087.673096 376.843628 C 1087.673096 391.957031 1084.673096 404.520264 1078.664307 414.533325 C 1072.655762 424.546387 1064.596924 431.921875 1054.492188 436.655518 C 1044.387451 441.389038 1033.053223 443.755859 1020.48999 443.755859 C 1008.105957 443.755859 996.905273 441.389038 986.896484 436.655518"/>
    <path id="path7" fill="#22493f" stroke="none" d="M 1120.993408 438.020996 C 1119.901855 436.929199 1119.351807 435.658325 1119.351807 434.195679 L 1119.351807 253.939453 C 1119.351807 252.485107 1119.901855 251.209961 1120.993408 250.118164 C 1122.085205 249.026611 1123.356201 248.480713 1124.818604 248.480713 L 1226.687256 248.480713 C 1228.145508 248.480713 1229.420654 249.026611 1230.512451 250.118164 C 1231.604248 251.209961 1232.149902 252.485107 1232.149902 253.939453 L 1232.149902 291.083252 C 1232.149902 292.545654 1231.604248 293.81665 1230.512451 294.908447 C 1229.420654 296.000244 1228.145508 296.545898 1226.687256 296.545898 L 1171.246338 296.545898 C 1170.517334 296.545898 1169.879639 296.779297 1169.33374 297.229492 C 1168.787842 297.687744 1168.51709 298.371094 1168.51709 299.279541 L 1168.51709 315.938843 C 1168.51709 317.759766 1169.421387 318.668091 1171.246338 318.668091 L 1224.503662 318.668091 C 1225.958008 318.668091 1227.237305 319.213989 1228.324707 320.309937 C 1229.420654 321.401611 1229.966553 322.676758 1229.966553 324.130981 L 1229.966553 361.27478 C 1229.966553 362.733154 1229.420654 364.008301 1228.324707 365.099976 C 1227.237305 366.191772 1225.958008 366.737671 1224.503662 366.737671 L 1171.246338 366.737671 C 1170.517334 366.737671 1169.879639 366.966797 1169.33374 367.421021 C 1168.787842 367.879395 1168.51709 368.558594 1168.51709 369.466919 L 1168.51709 388.859741 C 1168.51709 390.680664 1169.421387 391.593262 1171.246338 391.593262 L 1227.782959 391.593262 C 1229.237305 391.593262 1230.512451 392.13916 1231.604248 393.230835 C 1232.695801 394.32251 1233.241699 395.597656 1233.241699 397.05188 L 1233.241699 434.195679 C 1233.241699 435.658325 1232.695801 436.929199 1231.604248 438.020996 C 1230.512451 439.112671 1229.237305 439.658569 1227.782959 439.658569 L 1124.818604 439.658569 C 1123.356201 439.658569 1122.085205 439.112671 1120.993408 438.020996"/>
    <path id="path8" fill="#22493f" stroke="none" d="M 659.648193 571.807983 C 655.164551 569.607788 651.618408 566.465942 649.022461 562.382446 C 646.418213 558.298828 645.118164 553.615234 645.118164 548.331543 L 645.118164 547.735718 C 645.118164 547.093994 645.359863 546.531494 645.839111 546.052246 C 646.318115 545.57312 646.876465 545.331421 647.518311 545.331421 L 661.810791 545.331421 C 662.452393 545.331421 663.010742 545.57312 663.48999 546.052246 C 663.969238 546.531494 664.210938 547.093994 664.210938 547.735718 L 664.210938 548.931641 C 664.210938 550.694214 664.652588 552.256836 665.531738 553.615234 C 666.411133 554.977783 667.652832 556.040405 669.25708 556.798706 C 670.853027 557.561279 672.657227 557.94043 674.657471 557.94043 C 677.699219 557.94043 680.178467 557.119629 682.103516 555.477783 C 684.020508 553.83606 684.98291 551.777588 684.98291 549.294189 C 684.98291 546.973145 684.278809 545.089722 682.882813 543.6521 C 681.482666 542.210449 679.341064 541.089478 676.45752 540.289429 L 666.252686 537.526733 C 660.248291 535.926636 655.581299 532.984863 652.264404 528.701294 C 648.943359 524.421875 647.280762 519.238159 647.280762 513.150391 C 647.280762 508.350098 648.480713 504.008179 650.880859 500.124634 C 653.285156 496.241089 656.602051 493.199219 660.848145 490.999023 C 665.090088 488.79895 669.894531 487.698853 675.257324 487.698853 C 680.541016 487.698853 685.282959 488.715576 689.487305 490.757324 C 693.687744 492.799194 696.950439 495.682617 699.275391 499.403687 C 701.592285 503.124756 702.750732 507.387573 702.750732 512.192017 L 702.750732 513.033691 C 702.750732 513.675415 702.513184 514.233765 702.033936 514.712891 C 701.554688 515.192139 700.992188 515.433838 700.354736 515.433838 L 686.545654 515.433838 C 685.903809 515.433838 685.345459 515.192139 684.862061 514.712891 C 684.382813 514.233765 684.145508 513.675415 684.145508 513.033691 L 684.145508 512.192017 C 684.145508 509.950195 683.341309 508.170898 681.741211 506.849976 C 680.136719 505.529053 677.978271 504.866577 675.257324 504.866577 C 672.536377 504.866577 670.336182 505.545776 668.652832 506.908325 C 666.973633 508.270874 666.131836 510.029297 666.131836 512.192017 C 666.131836 514.354614 666.831787 516.092163 668.231934 517.413086 C 669.63208 518.734009 671.894775 519.838257 675.015625 520.717407 L 684.382813 523.480103 C 690.866699 525.401123 695.750244 528.401245 699.029541 532.484863 C 702.313232 536.568359 703.954834 541.772827 703.954834 548.094116 C 703.954834 553.456909 702.692383 558.198853 700.171387 562.324097 C 697.650391 566.44519 694.187744 569.607788 689.787354 571.807983 C 685.383057 574.008057 680.420166 575.108154 674.894775 575.108154 C 669.211182 575.108154 664.131836 574.008057 659.648193 571.807983"/>
    <path id="path9" fill="#22493f" stroke="none" d="M 717.766113 572.708862 C 717.286865 572.229614 717.041016 571.667114 717.041016 571.025391 L 717.041016 515.192993 C 717.041016 514.55127 717.286865 513.99292 717.766113 513.513672 C 718.245361 513.030396 718.807861 512.792847 719.445313 512.792847 L 728.329346 512.792847 C 729.133545 512.792847 729.729248 512.934448 730.133545 513.213745 C 730.533447 513.49292 730.929443 513.951294 731.333496 514.592896 C 731.733643 515.155518 732.096191 515.572144 732.416992 515.855469 C 732.733643 516.134644 733.175293 516.272217 733.737793 516.272217 C 734.133789 516.272217 734.592041 516.134644 735.117188 515.855469 C 735.637939 515.572144 736.137939 515.234619 736.617188 514.834595 C 738.054932 513.634521 739.517334 512.713623 741.000732 512.071899 C 742.47998 511.430298 744.463623 511.109375 746.942871 511.109375 C 749.663818 511.109375 751.884766 511.551147 753.609863 512.430298 C 755.32666 513.313721 756.910156 514.472046 758.347656 515.913818 C 758.910156 516.393066 759.472656 516.813965 760.031006 517.176392 C 760.589355 517.53479 761.114502 517.713989 761.59375 517.713989 C 762.068604 517.713989 762.572998 517.53479 763.09375 517.176392 C 763.614746 516.813965 764.193848 516.355591 764.835449 515.792969 C 766.514893 514.351318 768.273193 513.213745 770.119141 512.371948 C 771.960938 511.530273 774.398682 511.109375 777.44458 511.109375 C 781.523926 511.109375 785.065918 511.992798 788.066162 513.751221 C 791.070313 515.513794 793.391357 518.055664 795.033203 521.376709 C 796.674805 524.701904 797.49585 528.681274 797.49585 533.323242 L 797.49585 571.025391 C 797.49585 571.667114 797.25415 572.229614 796.774902 572.708862 C 796.295654 573.187988 795.733154 573.429688 795.091553 573.429688 L 782.607422 573.429688 C 781.96167 573.429688 781.403076 573.187988 780.924072 572.708862 C 780.444824 572.229614 780.203125 571.667114 780.203125 571.025391 L 780.203125 535.244141 C 780.203125 533.085693 779.540527 531.402222 778.219727 530.202148 C 776.898682 529.002075 775.161133 528.4021 772.998535 528.4021 C 770.835938 528.4021 769.11499 529.002075 767.835693 530.202148 C 766.552246 531.402222 765.914795 533.085693 765.914795 535.244141 L 765.914795 571.025391 C 765.914795 571.667114 765.673096 572.229614 765.193848 572.708862 C 764.7146 573.187988 764.1521 573.429688 763.514648 573.429688 L 751.026367 573.429688 C 750.384766 573.429688 749.826416 573.187988 749.343018 572.708862 C 748.86377 572.229614 748.626221 571.667114 748.626221 571.025391 L 748.626221 535.244141 C 748.626221 533.085693 747.963623 531.402222 746.642822 530.202148 C 745.322021 529.002075 743.584229 528.4021 741.421631 528.4021 C 739.259033 528.4021 737.538086 529.002075 736.258789 530.202148 C 734.975586 531.402222 734.33374 533.085693 734.33374 535.244141 L 734.33374 571.025391 C 734.33374 571.667114 734.096191 572.229614 733.616943 572.708862 C 733.133789 573.187988 732.571045 573.429688 731.933594 573.429688 L 719.445313 573.429688 C 718.807861 573.429688 718.245361 573.187988 717.766113 572.708862"/>
    <path id="path10" fill="#22493f" stroke="none" d="M 838.738281 560.281494 C 840.138184 559.681396 841.238281 558.760498 842.04248 557.518799 C 842.838379 556.2771 843.242676 554.739502 843.242676 552.897705 L 843.242676 550.01416 C 843.242676 549.614136 843.138428 549.293335 842.938477 549.055786 C 842.742676 548.814087 842.438477 548.693237 842.04248 548.693237 L 833.033691 548.693237 C 830.950195 548.693237 829.308594 549.234985 828.112549 550.314209 C 826.912598 551.397583 826.30835 552.855957 826.30835 554.697754 C 826.30835 556.697876 826.987549 558.281372 828.354248 559.439697 C 829.712646 560.602295 831.592041 561.181519 833.996338 561.181519 C 835.754639 561.181519 837.333984 560.88147 838.738281 560.281494 M 819.10376 572.590454 C 816.066162 570.907104 813.724365 568.548584 812.08252 565.502563 C 810.440674 562.464966 809.619873 558.939697 809.619873 554.935303 C 809.619873 551.335083 810.39917 548.076538 811.96167 545.151367 C 813.52417 542.230347 815.865967 539.909424 818.987061 538.188477 C 822.108154 536.467529 825.87085 535.60498 830.270996 535.60498 L 842.04248 535.60498 C 842.438477 535.60498 842.742676 535.484131 842.938477 535.246704 C 843.138428 535.005005 843.242676 534.72583 843.242676 534.404907 L 843.242676 532.604858 C 843.242676 530.363037 842.60083 528.662964 841.317627 527.500366 C 840.03833 526.341919 838.117432 525.758545 835.554688 525.758545 C 833.312988 525.758545 831.575195 526.162842 830.333496 526.958618 C 829.091797 527.762817 828.270996 528.883789 827.87085 530.321411 C 827.62915 531.042236 827.30835 531.504761 826.912598 531.704834 C 826.508301 531.904785 825.87085 532.004761 824.991455 532.004761 L 814.424316 532.004761 C 813.620117 532.004761 813.02417 531.783936 812.620117 531.342285 C 812.219971 530.904785 812.02417 530.283813 812.02417 529.483765 C 812.02417 526.521118 812.96167 523.620972 814.845215 520.775024 C 816.724365 517.937256 819.445313 515.612183 823.008057 513.812012 C 826.570801 512.011963 830.754395 511.111938 835.554688 511.111938 C 840.60083 511.111938 844.880127 511.991089 848.405518 513.753662 C 851.926514 515.516357 854.605713 518.016479 856.44751 521.258301 C 858.289307 524.500244 859.210205 528.321289 859.210205 532.725708 L 859.210205 571.027954 C 859.210205 571.669556 858.968506 572.228027 858.489258 572.707153 C 858.010254 573.190552 857.447754 573.428101 856.805908 573.428101 L 848.884521 573.428101 C 848.163818 573.428101 847.601318 573.269653 847.205322 572.948853 C 846.80127 572.628052 846.36377 572.148804 845.884521 571.50708 C 845.480225 570.94873 845.121826 570.548706 844.801025 570.307007 C 844.480225 570.065308 844.038574 569.944458 843.480225 569.944458 C 843.080078 569.944458 842.638428 570.086182 842.15918 570.369507 C 841.679932 570.648682 841.200928 570.986206 840.72168 571.38623 C 839.200684 572.511353 837.634033 573.411377 836.038086 574.090576 C 834.433838 574.769775 832.275391 575.11145 829.554443 575.11145 C 825.62915 575.11145 822.145508 574.269775 819.10376 572.590454"/>
    <path id="path11" fill="#22493f" stroke="none" d="M 874.698242 572.708862 C 874.218994 572.229614 873.973145 571.667114 873.973145 571.025391 L 873.973145 490.578979 C 873.973145 489.937378 874.218994 489.378906 874.698242 488.89563 C 875.17749 488.416382 875.73999 488.174683 876.377441 488.174683 L 888.865723 488.174683 C 889.503174 488.174683 890.065918 488.416382 890.549072 488.89563 C 891.02832 489.378906 891.265869 489.937378 891.265869 490.578979 L 891.265869 571.025391 C 891.265869 571.667114 891.02832 572.229614 890.549072 572.708862 C 890.065918 573.187988 889.503174 573.429688 888.865723 573.429688 L 876.377441 573.429688 C 875.73999 573.429688 875.17749 573.187988 874.698242 572.708862"/>
    <path id="path12" fill="#22493f" stroke="none" d="M 907.116455 572.708862 C 906.637207 572.229614 906.391357 571.667114 906.391357 571.025391 L 906.391357 490.578979 C 906.391357 489.937378 906.637207 489.378906 907.116455 488.89563 C 907.595459 488.416382 908.158203 488.174683 908.795654 488.174683 L 921.283936 488.174683 C 921.921387 488.174683 922.483887 488.416382 922.967285 488.89563 C 923.446533 489.378906 923.684082 489.937378 923.684082 490.578979 L 923.684082 571.025391 C 923.684082 571.667114 923.446533 572.229614 922.967285 572.708862 C 922.483887 573.187988 921.921387 573.429688 921.283936 573.429688 L 908.795654 573.429688 C 908.158203 573.429688 907.595459 573.187988 907.116455 572.708862"/>
    <path id="path13" fill="#22493f" stroke="none" d="M 978.676025 572.708862 C 978.196777 572.229614 977.955078 571.667114 977.955078 571.025391 L 977.955078 508.950928 C 977.955078 508.150879 977.555176 507.750854 976.755127 507.750854 L 962.108398 507.750854 C 961.466553 507.750854 960.908203 507.509155 960.424805 507.030029 C 959.945801 506.546631 959.704102 505.988281 959.704102 505.346558 L 959.704102 491.779053 C 959.704102 491.137451 959.945801 490.578979 960.424805 490.095703 C 960.908203 489.616455 961.466553 489.378906 962.108398 489.378906 L 1012.298828 489.378906 C 1012.936279 489.378906 1013.498779 489.616455 1013.978027 490.095703 C 1014.461426 490.578979 1014.698975 491.137451 1014.698975 491.779053 L 1014.698975 505.346558 C 1014.698975 505.988281 1014.461426 506.546631 1013.978027 507.030029 C 1013.498779 507.509155 1012.936279 507.750854 1012.298828 507.750854 L 997.647949 507.750854 C 997.327148 507.750854 997.047852 507.85083 996.810303 508.050903 C 996.564453 508.250854 996.447754 508.550903 996.447754 508.950928 L 996.447754 571.025391 C 996.447754 571.667114 996.206299 572.229614 995.727051 572.708862 C 995.243652 573.187988 994.685303 573.429688 994.043457 573.429688 L 980.355225 573.429688 C 979.717773 573.429688 979.155273 573.187988 978.676025 572.708862"/>
    <path id="path14" fill="#22493f" stroke="none" d="M 1044.712402 556.798706 C 1045.99585 556.19873 1046.949951 555.340332 1047.591797 554.21521 C 1048.233398 553.177734 1048.654297 551.877563 1048.854248 550.315063 C 1049.054199 548.752441 1049.158447 546.331421 1049.158447 543.052124 C 1049.158447 539.768555 1049.054199 537.368408 1048.854248 535.847534 C 1048.654297 534.326538 1048.233398 533.043213 1047.591797 532.001465 C 1046.949951 530.884766 1045.99585 530.005493 1044.712402 529.36377 C 1043.428955 528.722046 1041.833008 528.401245 1039.907959 528.401245 C 1037.991211 528.401245 1036.407715 528.722046 1035.166016 529.36377 C 1033.924316 530.005493 1032.949219 530.884766 1032.224121 532.001465 C 1031.58252 533.043213 1031.165771 534.326538 1030.96582 535.847534 C 1030.761475 537.368408 1030.665771 539.768555 1030.665771 543.052124 C 1030.665771 546.331421 1030.761475 548.752441 1030.96582 550.315063 C 1031.165771 551.877563 1031.58252 553.177734 1032.224121 554.21521 C 1032.949219 555.340332 1033.924316 556.19873 1035.166016 556.798706 C 1036.407715 557.398804 1037.991211 557.698853 1039.907959 557.698853 C 1041.833008 557.698853 1043.428955 557.398804 1044.712402 556.798706 M 1027.419678 572.407959 C 1023.661133 570.60791 1020.656738 568.145264 1018.415039 565.02417 C 1016.494141 562.461548 1015.131348 559.519775 1014.335693 556.19873 C 1013.53125 552.877686 1013.135498 548.494141 1013.135498 543.052124 C 1013.135498 539.36853 1013.293945 536.226685 1013.614746 533.622437 C 1013.931396 531.022217 1014.473145 528.722046 1015.231445 526.721924 C 1015.993896 524.721924 1017.056641 522.838379 1018.415039 521.075806 C 1020.656738 517.954834 1023.661133 515.512939 1027.419678 513.754517 C 1031.186523 511.991943 1035.349365 511.108521 1039.907959 511.108521 C 1044.474854 511.108521 1048.633301 511.991943 1052.39624 513.754517 C 1056.158936 515.512939 1059.163086 517.954834 1061.400879 521.075806 C 1063.325928 523.717651 1064.684326 526.680298 1065.488525 529.963867 C 1066.284424 533.243164 1066.688721 537.605957 1066.688721 543.052124 C 1066.688721 546.731445 1066.526123 549.877563 1066.205322 552.477661 C 1065.884521 555.077759 1065.346924 557.38208 1064.584473 559.382202 C 1063.821777 561.382324 1062.763428 563.261597 1061.400879 565.02417 C 1059.163086 568.145264 1056.158936 570.60791 1052.39624 572.407959 C 1048.633301 574.20813 1044.474854 575.108154 1039.907959 575.108154 C 1035.349365 575.108154 1031.186523 574.20813 1027.419678 572.407959"/>
    <path id="path15" fill="#22493f" stroke="none" d="M 1089.61499 572.948486 C 1089.214844 572.631714 1088.935791 572.190063 1088.773193 571.627563 L 1073.647461 516.874268 C 1073.326416 515.515869 1073.384766 514.494995 1073.82666 513.811646 C 1074.26416 513.132446 1075.168213 512.790771 1076.526611 512.790771 L 1087.335693 512.790771 C 1088.535645 512.790771 1089.294189 513.390747 1089.61499 514.594971 L 1097.540527 546.292725 C 1097.702881 546.771851 1098.040527 547.01355 1098.561279 547.01355 C 1099.082275 547.01355 1099.382324 546.771851 1099.465576 546.292725 L 1107.870117 514.594971 C 1108.187012 513.390747 1108.945313 512.790771 1110.149414 512.790771 L 1119.033447 512.790771 C 1120.233398 512.790771 1120.991943 513.390747 1121.316895 514.594971 L 1129.721436 546.292725 C 1129.879883 546.771851 1130.221436 547.01355 1130.742432 547.01355 C 1131.263184 547.01355 1131.563232 546.771851 1131.642334 546.292725 L 1139.567871 514.594971 C 1139.888672 513.390747 1140.647217 512.790771 1141.851318 512.790771 L 1152.772949 512.790771 C 1154.056152 512.790771 1154.918701 513.132446 1155.356445 513.811646 C 1155.798096 514.494995 1155.856445 515.515869 1155.539795 516.874268 L 1140.530518 571.627563 C 1140.209717 572.827637 1139.447021 573.427612 1138.24707 573.427612 L 1126.358887 573.427612 C 1125.237793 573.427612 1124.475342 572.827637 1124.07959 571.627563 L 1115.553955 543.29248 C 1115.470703 542.809204 1115.174805 542.571655 1114.654053 542.571655 C 1114.128906 542.571655 1113.791504 542.809204 1113.628906 543.29248 L 1105.103516 571.627563 C 1104.945068 572.190063 1104.665771 572.631714 1104.265869 572.948486 C 1103.865723 573.269287 1103.386719 573.427612 1102.823975 573.427612 L 1091.056641 573.427612 C 1090.498291 573.427612 1090.019287 573.269287 1089.61499 572.948486"/>
    <path id="path16" fill="#22493f" stroke="none" d="M 1167.424072 572.708862 C 1166.944824 572.229614 1166.698975 571.667114 1166.698975 571.025391 L 1166.698975 515.192993 C 1166.698975 514.55127 1166.944824 513.99292 1167.424072 513.513672 C 1167.90332 513.030396 1168.46582 512.792847 1169.103271 512.792847 L 1177.987305 512.792847 C 1178.791504 512.792847 1179.387207 512.934448 1179.791504 513.213745 C 1180.19165 513.49292 1180.587402 513.951294 1180.991699 514.592896 C 1181.391602 515.155518 1181.75415 515.572144 1182.074951 515.855469 C 1182.391602 516.134644 1182.833252 516.272217 1183.395996 516.272217 C 1183.954346 516.272217 1184.491699 516.113892 1185.012695 515.792969 C 1185.533447 515.476318 1186.071045 515.11377 1186.633545 514.713745 C 1188.317139 513.592896 1189.996338 512.713623 1191.675537 512.071899 C 1193.358887 511.430298 1195.59668 511.109375 1198.405029 511.109375 C 1202.080322 511.109375 1205.405518 512.030273 1208.368164 513.87207 C 1211.330811 515.713867 1213.651855 518.313965 1215.331055 521.676636 C 1217.014648 525.039429 1217.852051 528.802124 1217.852051 532.964844 L 1217.852051 571.025391 C 1217.852051 571.667114 1217.614502 572.229614 1217.135254 572.708862 C 1216.6521 573.187988 1216.089355 573.429688 1215.451904 573.429688 L 1202.963623 573.429688 C 1202.326172 573.429688 1201.763672 573.187988 1201.284424 572.708862 C 1200.805176 572.229614 1200.563477 571.667114 1200.563477 571.025391 L 1200.563477 536.327515 C 1200.563477 533.764893 1199.821777 531.806396 1198.342529 530.443848 C 1196.859131 529.081299 1194.838135 528.4021 1192.279785 528.4021 C 1189.717041 528.4021 1187.696045 529.081299 1186.212646 530.443848 C 1184.733398 531.806396 1183.991699 533.764893 1183.991699 536.327515 L 1183.991699 571.025391 C 1183.991699 571.667114 1183.75415 572.229614 1183.275146 572.708862 C 1182.791748 573.187988 1182.229248 573.429688 1181.591553 573.429688 L 1169.103271 573.429688 C 1168.46582 573.429688 1167.90332 573.187988 1167.424072 572.708862"/>
    <path id="path17" fill="#22493f" stroke="none" d="M 1231.666748 589.218994 C 1231.262451 588.456421 1231.262451 587.556396 1231.666748 586.518799 L 1235.987793 575.230713 C 1236.145996 574.751465 1236.125244 574.330566 1235.925293 573.96814 C 1235.729492 573.609741 1235.387695 573.430542 1234.908447 573.430542 L 1232.866699 573.430542 C 1232.225098 573.430542 1231.666748 573.188843 1231.1875 572.709717 C 1230.704102 572.226318 1230.462402 571.667969 1230.462402 571.026245 L 1230.462402 554.337769 C 1230.462402 553.696045 1230.704102 553.137695 1231.1875 552.658447 C 1231.666748 552.175171 1232.225098 551.933472 1232.866699 551.933472 L 1247.150879 551.933472 C 1247.79248 551.933472 1248.355225 552.175171 1248.838379 552.658447 C 1249.313477 553.137695 1249.555176 553.696045 1249.555176 554.337769 L 1249.555176 569.947021 C 1249.555176 571.388794 1249.355225 572.730469 1248.955078 573.96814 C 1248.555176 575.209839 1247.91333 576.672363 1247.03418 578.351685 L 1241.992188 587.956421 C 1241.667236 588.677246 1241.150635 589.25647 1240.429688 589.69812 C 1239.70874 590.139893 1238.825439 590.360718 1237.787842 590.360718 L 1233.708496 590.360718 C 1232.74585 590.360718 1232.06665 589.977295 1231.666748 589.218994"/>
    <path id="path18" fill="#22493f" stroke="none" d="M 1322.793213 554.757324 C 1324.07666 553.915649 1325.07666 552.819702 1325.793457 551.457153 C 1326.518555 550.094604 1326.876709 548.615356 1326.876709 547.011108 C 1326.876709 545.411011 1326.518555 543.931763 1325.793457 542.569214 C 1325.07666 541.210693 1324.07666 540.127319 1322.793213 539.327271 C 1321.513916 538.527222 1320.034668 538.127197 1318.351318 538.127197 L 1309.463379 538.127197 C 1309.142334 538.127197 1308.867432 538.227295 1308.625732 538.427246 C 1308.384033 538.627319 1308.263184 538.927246 1308.263184 539.327271 L 1308.263184 554.819824 C 1308.263184 555.136597 1308.384033 555.419922 1308.625732 555.657471 C 1308.867432 555.899048 1309.142334 556.019897 1309.463379 556.019897 L 1318.351318 556.019897 C 1320.034668 556.019897 1321.513916 555.599121 1322.793213 554.757324 M 1322.376465 521.076294 C 1323.530762 520.355347 1324.435059 519.376099 1325.07666 518.134399 C 1325.718506 516.896851 1326.039307 515.555054 1326.039307 514.113281 C 1326.039307 511.871582 1325.314209 509.929688 1323.876709 508.287964 C 1322.434814 506.650391 1320.672363 505.829468 1318.593018 505.829468 L 1309.463379 505.829468 C 1309.142334 505.829468 1308.867432 505.929565 1308.625732 506.129517 C 1308.384033 506.32959 1308.263184 506.629517 1308.263184 507.029541 L 1308.263184 520.955444 C 1308.263184 521.759644 1308.66333 522.155518 1309.463379 522.155518 L 1318.593018 522.155518 C 1319.951416 522.155518 1321.213867 521.797119 1322.376465 521.076294 M 1291.095459 572.708374 C 1290.612061 572.229248 1290.374756 571.670898 1290.374756 571.029175 L 1290.374756 491.778687 C 1290.374756 491.141113 1290.612061 490.578613 1291.095459 490.099365 C 1291.574707 489.616089 1292.133057 489.37854 1292.774902 489.37854 L 1319.55127 489.37854 C 1324.114258 489.37854 1328.314453 490.420288 1332.1604 492.499512 C 1336.002441 494.583008 1339.044189 497.404053 1341.285889 500.966675 C 1343.523682 504.529419 1344.644531 508.392212 1344.644531 512.550781 C 1344.644531 515.675903 1344.12793 518.613647 1343.086182 521.376221 C 1342.048584 524.138916 1340.406738 526.559937 1338.165039 528.643311 C 1337.764893 529.043335 1337.564941 529.464233 1337.564941 529.901733 C 1337.564941 530.343384 1337.764893 530.685181 1338.165039 530.922607 C 1340.565186 532.843628 1342.427734 535.306274 1343.748535 538.306396 C 1345.06958 541.310791 1345.727783 544.490112 1345.727783 547.852783 C 1345.727783 552.898926 1344.606934 557.361694 1342.369385 561.241089 C 1340.123291 565.124634 1337.023193 568.129028 1333.060547 570.245728 C 1329.097656 572.37085 1324.593262 573.429321 1319.55127 573.429321 L 1292.774902 573.429321 C 1292.133057 573.429321 1291.574707 573.187622 1291.095459 572.708374"/>
    <path id="path19" fill="#22493f" stroke="none" d="M 1359.839111 572.828857 C 1359.480713 572.428833 1359.297363 571.949585 1359.297363 571.387085 L 1359.297363 514.83374 C 1359.297363 514.275391 1359.480713 513.792114 1359.839111 513.39209 C 1360.19751 512.992065 1360.69751 512.791992 1361.339355 512.791992 L 1374.54834 512.791992 C 1375.189941 512.791992 1375.690186 512.992065 1376.04834 513.39209 C 1376.406738 513.792114 1376.585938 514.275391 1376.585938 514.83374 L 1376.585938 571.387085 C 1376.585938 571.949585 1376.406738 572.428833 1376.04834 572.828857 C 1375.690186 573.228882 1375.189941 573.428833 1374.54834 573.428833 L 1361.339355 573.428833 C 1360.69751 573.428833 1360.19751 573.228882 1359.839111 572.828857 M 1359.597412 504.808228 C 1359.239014 504.445679 1359.055664 503.987305 1359.055664 503.424805 L 1359.055664 490.699097 C 1359.055664 490.215698 1359.239014 489.778198 1359.597412 489.378174 C 1359.955811 488.978149 1360.418457 488.778076 1360.980957 488.778076 L 1374.906738 488.778076 C 1375.465088 488.778076 1375.92749 488.978149 1376.285889 489.378174 C 1376.648438 489.778198 1376.831787 490.215698 1376.831787 490.699097 L 1376.831787 503.424805 C 1376.831787 503.987305 1376.648438 504.445679 1376.285889 504.808228 C 1375.92749 505.166504 1375.465088 505.345703 1374.906738 505.345703 L 1360.980957 505.345703 C 1360.418457 505.345703 1359.955811 505.166504 1359.597412 504.808228"/>
    <path id="path20" fill="#22493f" stroke="none" d="M 1420.294434 554.817749 C 1421.494385 554.259399 1422.411133 553.459351 1423.057129 552.417603 C 1423.615479 551.375977 1423.994629 550.155029 1424.19458 548.754883 C 1424.394531 547.354858 1424.494629 545.133911 1424.494629 542.087891 C 1424.494629 538.966919 1424.394531 536.708374 1424.19458 535.304199 C 1423.994629 533.904053 1423.615479 532.724854 1423.057129 531.762329 C 1422.411133 530.724731 1421.515137 529.903809 1420.352783 529.303833 C 1419.190186 528.699585 1417.731689 528.399536 1415.973389 528.399536 C 1414.206543 528.399536 1412.731445 528.699585 1411.5271 529.303833 C 1410.327148 529.903809 1409.4104 530.724731 1408.768799 531.762329 C 1408.206055 532.724854 1407.826904 533.904053 1407.626953 535.304199 C 1407.427002 536.708374 1407.326904 538.966919 1407.326904 542.087891 C 1407.326904 545.133911 1407.427002 547.354858 1407.626953 548.754883 C 1407.826904 550.155029 1408.206055 551.375977 1408.768799 552.417603 C 1409.4104 553.459351 1410.3479 554.259399 1411.5896 554.817749 C 1412.827148 555.380371 1414.289795 555.659546 1415.973389 555.659546 C 1417.652588 555.659546 1419.094238 555.380371 1420.294434 554.817749 M 1404.747559 594.440918 C 1401.180664 592.920044 1398.422119 590.840698 1396.459717 588.198975 C 1394.49707 585.557129 1393.438721 582.59436 1393.276123 579.310913 C 1393.276123 578.594238 1393.49707 577.98999 1393.938721 577.510742 C 1394.376221 577.031616 1394.959473 576.789917 1395.67627 576.789917 L 1407.447754 576.789917 C 1408.243652 576.789917 1408.889404 576.910767 1409.364502 577.152466 C 1409.8479 577.389893 1410.327148 577.873291 1410.806396 578.594238 C 1411.289551 579.631714 1412.110596 580.452637 1413.269043 581.052612 C 1414.427246 581.65271 1415.810791 581.952759 1417.415039 581.952759 C 1419.331787 581.952759 1420.973633 581.331787 1422.336182 580.094238 C 1423.69458 578.852539 1424.373779 577.152466 1424.373779 574.989868 L 1424.373779 572.589722 C 1424.373779 571.706299 1424.215332 571.068726 1423.898682 570.668701 C 1423.57373 570.268677 1423.098633 570.064575 1422.457031 570.064575 C 1422.13623 570.064575 1421.794434 570.168701 1421.436035 570.368652 C 1421.077637 570.568726 1420.652588 570.747925 1420.173584 570.90625 C 1418.973389 571.547974 1417.810791 572.047974 1416.689941 572.410522 C 1415.569092 572.768799 1414.131592 572.947998 1412.368896 572.947998 C 1408.768799 572.947998 1405.422607 572.106323 1402.343262 570.427002 C 1399.263916 568.747803 1396.638916 566.385132 1394.476074 563.343262 C 1392.713623 560.78064 1391.513428 558.001343 1390.875977 554.996948 C 1390.234375 551.996826 1389.91748 547.654907 1389.91748 541.971191 C 1389.91748 538.208496 1390.03833 535.06665 1390.275879 532.541504 C 1390.513428 530.020508 1390.955078 527.862061 1391.596924 526.06189 C 1392.238525 524.25769 1393.197021 522.478394 1394.476074 520.71582 C 1396.638916 517.67395 1399.263916 515.311279 1402.343262 513.63208 C 1405.422607 511.948608 1408.768799 511.111084 1412.368896 511.111084 C 1414.848145 511.111084 1416.889893 511.452759 1418.494141 512.131958 C 1420.094238 512.811157 1421.615234 513.711182 1423.057129 514.832153 C 1423.615479 515.232178 1424.115479 515.573853 1424.557129 515.853027 C 1424.994629 516.136353 1425.415527 516.273926 1425.81543 516.273926 C 1426.37793 516.273926 1426.819824 516.136353 1427.136475 515.853027 C 1427.457275 515.573853 1427.819824 515.152954 1428.215576 514.594604 C 1428.619873 513.952881 1429.019775 513.494507 1429.419922 513.211182 C 1429.819824 512.932007 1430.378174 512.790283 1431.103271 512.790283 L 1439.024658 512.790283 C 1439.66626 512.790283 1440.224609 513.031982 1440.703857 513.51123 C 1441.187256 513.990356 1441.428955 514.552979 1441.428955 515.194702 L 1441.428955 572.827148 C 1441.428955 577.631592 1440.383057 581.83606 1438.303711 585.436279 C 1436.220215 589.036499 1433.361816 591.819946 1429.719971 593.782593 C 1426.073975 595.740967 1421.973633 596.724365 1417.415039 596.724365 C 1412.527344 596.724365 1408.306152 595.961914 1404.747559 594.440918"/>
    <path id="path21" fill="#22493f" stroke="none" d="M 1484.767334 572.708862 C 1484.288086 572.229614 1484.046387 571.667114 1484.046387 571.025391 L 1484.046387 491.779053 C 1484.046387 491.137451 1484.288086 490.578979 1484.767334 490.095703 C 1485.246582 489.616455 1485.809082 489.378906 1486.446533 489.378906 L 1500.018311 489.378906 C 1500.655762 489.378906 1501.218262 489.616455 1501.70166 490.095703 C 1502.180908 490.578979 1502.418213 491.137451 1502.418213 491.779053 L 1502.418213 571.025391 C 1502.418213 571.667114 1502.180908 572.229614 1501.70166 572.708862 C 1501.218262 573.187988 1500.655762 573.429688 1500.018311 573.429688 L 1486.446533 573.429688 C 1485.809082 573.429688 1485.246582 573.187988 1484.767334 572.708862"/>
    <path id="path22" fill="#22493f" stroke="none" d="M 1547.387695 556.798706 C 1548.625244 556.19873 1549.608643 555.340332 1550.32959 554.21521 C 1550.967041 553.177734 1551.371094 551.877563 1551.529541 550.315063 C 1551.692139 548.752441 1551.77124 546.331421 1551.77124 543.052124 C 1551.77124 539.689453 1551.692139 537.268433 1551.529541 535.785034 C 1551.371094 534.305786 1550.967041 533.043213 1550.32959 532.001465 C 1549.608643 530.884766 1548.625244 530.005493 1547.387695 529.36377 C 1546.145996 528.722046 1544.56665 528.401245 1542.645752 528.401245 C 1540.799805 528.401245 1539.241211 528.722046 1537.962158 529.36377 C 1536.682861 530.005493 1535.720215 530.884766 1535.078613 532.001465 C 1534.599365 532.72644 1534.240967 533.564087 1533.999268 534.526611 C 1533.757568 535.484985 1533.615967 536.726685 1533.578369 538.247681 C 1533.541016 539.768555 1533.520264 541.368652 1533.520264 543.052124 C 1533.520264 546.331421 1533.599365 548.752441 1533.757568 550.315063 C 1533.920166 551.877563 1534.361816 553.177734 1535.078613 554.21521 C 1535.720215 555.340332 1536.682861 556.19873 1537.962158 556.798706 C 1539.241211 557.398804 1540.799805 557.698853 1542.645752 557.698853 C 1544.56665 557.698853 1546.145996 557.398804 1547.387695 556.798706 M 1528.71582 572.528809 C 1525.515625 570.807861 1522.790283 568.307739 1520.552734 565.02417 C 1518.790039 562.461548 1517.590088 559.640625 1516.952393 556.557007 C 1516.306641 553.477661 1515.98999 548.977417 1515.98999 543.052124 C 1515.98999 539.047729 1516.11084 535.768311 1516.348389 533.205688 C 1516.585938 530.643066 1517.027588 528.422119 1517.669189 526.538696 C 1518.311035 524.659302 1519.269287 522.838379 1520.552734 521.075806 C 1522.790283 517.87561 1525.515625 515.412964 1528.71582 513.692017 C 1531.915771 511.971069 1535.399414 511.108521 1539.162109 511.108521 C 1541.003906 511.108521 1542.524902 511.312744 1543.724854 511.712769 C 1544.925049 512.112793 1546.087646 512.633667 1547.208496 513.27124 C 1547.608398 513.592041 1548.029297 513.83374 1548.470947 513.992065 C 1548.908447 514.154541 1549.250244 514.233765 1549.491943 514.233765 C 1550.129395 514.233765 1550.608643 514.054565 1550.929443 513.692017 C 1551.250244 513.33374 1551.408691 512.671143 1551.408691 511.712769 L 1551.408691 490.578247 C 1551.408691 489.936523 1551.650391 489.378174 1552.133789 488.894775 C 1552.608887 488.415527 1553.167236 488.178101 1553.812988 488.178101 L 1566.417969 488.178101 C 1567.05957 488.178101 1567.61792 488.415527 1568.101318 488.894775 C 1568.580566 489.378174 1568.822266 489.936523 1568.822266 490.578247 L 1568.822266 571.028687 C 1568.822266 571.67041 1568.580566 572.22876 1568.101318 572.708008 C 1567.61792 573.187256 1567.05957 573.428833 1566.417969 573.428833 L 1558.496582 573.428833 C 1557.696533 573.428833 1557.092285 573.270508 1556.692383 572.949707 C 1556.292236 572.628784 1555.892334 572.149658 1555.492188 571.507935 C 1555.092285 570.949585 1554.733887 570.54541 1554.413086 570.307861 C 1554.092285 570.066162 1553.650391 569.945313 1553.092041 569.945313 C 1552.692139 569.945313 1552.250488 570.087036 1551.77124 570.366211 C 1551.287842 570.649536 1550.76709 570.987061 1550.20874 571.387085 C 1548.766846 572.508057 1547.266846 573.412231 1545.708252 574.091431 C 1544.145752 574.77063 1541.962402 575.108154 1539.162109 575.108154 C 1535.399414 575.108154 1531.915771 574.249756 1528.71582 572.528809"/>
    <path id="path23" fill="#22493f" stroke="none" d="M 1618.110596 535.606201 C 1618.306396 535.364624 1618.40625 535.085449 1618.40625 534.764526 C 1618.40625 532.843628 1618.068848 531.122681 1617.385498 529.601685 C 1616.706299 528.084961 1615.626953 526.880737 1614.147705 526.001465 C 1612.664307 525.122314 1610.88501 524.680664 1608.805908 524.680664 C 1605.443115 524.680664 1602.922119 525.639038 1601.23877 527.559937 C 1599.555176 529.480835 1598.717773 531.885254 1598.717773 534.764526 C 1598.717773 535.085449 1598.817627 535.364624 1599.017822 535.606201 C 1599.217773 535.8479 1599.517822 535.9646 1599.917725 535.9646 L 1617.206299 535.9646 C 1617.606445 535.9646 1617.90625 535.8479 1618.110596 535.606201 M 1593.613281 571.387573 C 1589.571289 568.908203 1586.592041 565.282959 1584.666992 560.520264 C 1582.75 555.757446 1581.787598 549.936279 1581.787598 543.04834 C 1581.787598 536.247925 1582.75 530.464233 1584.666992 525.701538 C 1586.592041 520.938721 1589.571289 517.317627 1593.613281 514.834229 C 1597.655273 512.350708 1602.68042 511.109009 1608.685059 511.109009 C 1614.5271 511.109009 1619.406494 512.292358 1623.331543 514.650879 C 1627.252686 517.0177 1630.156982 520.376221 1632.036377 524.738892 C 1633.915527 529.101685 1634.857422 534.327026 1634.857422 540.410645 L 1634.857422 546.65271 C 1634.857422 547.294434 1634.619873 547.873657 1634.140625 548.394531 C 1633.657227 548.915405 1633.094727 549.173706 1632.457275 549.173706 L 1600.038574 549.173706 C 1599.717773 549.173706 1599.438477 549.273682 1599.197021 549.473755 C 1598.959473 549.673706 1598.838623 549.973755 1598.838623 550.373779 C 1598.838623 552.698975 1599.259521 554.657349 1600.101074 556.257446 C 1600.938721 557.861694 1602.12207 559.041016 1603.638916 559.799316 C 1605.159668 560.56189 1606.880615 560.94104 1608.805908 560.94104 C 1610.964355 560.94104 1612.685303 560.582764 1613.968506 559.861816 C 1615.243652 559.140991 1616.247803 558.057617 1616.96875 556.619995 C 1617.368896 555.899048 1617.827148 555.357422 1618.348145 554.999023 C 1618.868896 554.636475 1619.489746 554.457397 1620.210693 554.457397 L 1631.736328 554.457397 C 1632.536377 554.457397 1633.119629 554.719849 1633.478027 555.236572 C 1633.840576 555.757446 1633.936523 556.419922 1633.782227 557.219971 C 1632.498779 562.824463 1629.69458 567.203979 1625.373535 570.366577 C 1621.048096 573.529297 1615.5271 575.108521 1608.805908 575.108521 C 1602.718018 575.108521 1597.655273 573.866821 1593.613281 571.387573"/>
    <path id="path24" fill="#22493f" stroke="none" d="M 1674.77832 560.281494 C 1676.178467 559.681396 1677.278564 558.760498 1678.082764 557.518799 C 1678.878662 556.2771 1679.282959 554.739502 1679.282959 552.897705 L 1679.282959 550.01416 C 1679.282959 549.614136 1679.178711 549.293335 1678.97876 549.055786 C 1678.782715 548.814087 1678.47876 548.693237 1678.082764 548.693237 L 1669.073975 548.693237 C 1666.990479 548.693237 1665.348633 549.234985 1664.152832 550.314209 C 1662.952637 551.397583 1662.348633 552.855957 1662.348633 554.697754 C 1662.348633 556.697876 1663.027832 558.281372 1664.394531 559.439697 C 1665.75293 560.602295 1667.63208 561.181519 1670.036377 561.181519 C 1671.794922 561.181519 1673.374268 560.88147 1674.77832 560.281494 M 1655.144043 572.590454 C 1652.106201 570.907104 1649.764404 568.548584 1648.122803 565.502563 C 1646.480957 562.464966 1645.660156 558.939697 1645.660156 554.935303 C 1645.660156 551.335083 1646.439209 548.076538 1648.001953 545.151367 C 1649.564453 542.230347 1651.90625 539.909424 1655.027344 538.188477 C 1658.148193 536.467529 1661.910889 535.60498 1666.311279 535.60498 L 1678.082764 535.60498 C 1678.47876 535.60498 1678.782715 535.484131 1678.97876 535.246704 C 1679.178711 535.005005 1679.282959 534.72583 1679.282959 534.404907 L 1679.282959 532.604858 C 1679.282959 530.363037 1678.641113 528.662964 1677.357666 527.500366 C 1676.078613 526.341919 1674.157471 525.758545 1671.594971 525.758545 C 1669.353027 525.758545 1667.615479 526.162842 1666.373779 526.958618 C 1665.13208 527.762817 1664.311035 528.883789 1663.911133 530.321411 C 1663.669434 531.042236 1663.348633 531.504761 1662.952637 531.704834 C 1662.548584 531.904785 1661.910889 532.004761 1661.031738 532.004761 L 1650.4646 532.004761 C 1649.6604 532.004761 1649.064453 531.783936 1648.660156 531.342285 C 1648.260254 530.904785 1648.064453 530.283813 1648.064453 529.483765 C 1648.064453 526.521118 1649.001953 523.620972 1650.885254 520.775024 C 1652.764648 517.937256 1655.485596 515.612183 1659.04834 513.812012 C 1662.611084 512.011963 1666.794678 511.111938 1671.594971 511.111938 C 1676.641113 511.111938 1680.92041 511.991089 1684.445557 513.753662 C 1687.966797 515.516357 1690.645996 518.016479 1692.487793 521.258301 C 1694.32959 524.500244 1695.250488 528.321289 1695.250488 532.725708 L 1695.250488 571.027954 C 1695.250488 571.669556 1695.008789 572.228027 1694.529541 572.707153 C 1694.050293 573.190552 1693.487793 573.428101 1692.846191 573.428101 L 1684.924805 573.428101 C 1684.203857 573.428101 1683.641357 573.269653 1683.245605 572.948853 C 1682.841309 572.628052 1682.403809 572.148804 1681.924561 571.50708 C 1681.520508 570.94873 1681.162109 570.548706 1680.841309 570.307007 C 1680.520508 570.065308 1680.078613 569.944458 1679.520264 569.944458 C 1679.120361 569.944458 1678.678711 570.086182 1678.199463 570.369507 C 1677.720215 570.648682 1677.240967 570.986206 1676.761963 571.38623 C 1675.240967 572.511353 1673.674072 573.411377 1672.078369 574.090576 C 1670.474121 574.769775 1668.31543 575.11145 1665.594482 575.11145 C 1661.669434 575.11145 1658.185791 574.269775 1655.144043 572.590454"/>
    <path id="path25" fill="#22493f" stroke="none" d="M 1718.906738 572.708862 C 1715.144043 571.108765 1712.260498 568.766968 1710.260498 565.683472 C 1708.260498 562.604126 1707.260254 558.978882 1707.260254 554.816162 C 1707.260254 554.178589 1707.477051 553.657715 1707.918701 553.25769 C 1708.356201 552.857666 1708.939697 552.657715 1709.6604 552.657715 L 1722.148682 552.657715 C 1722.869629 552.657715 1723.44873 552.857666 1723.890381 553.25769 C 1724.327881 553.657715 1724.548828 554.178589 1724.548828 554.816162 C 1724.548828 556.178711 1724.848877 557.337158 1725.448975 558.299683 C 1726.052979 559.262207 1726.948975 560.003906 1728.14917 560.52063 C 1729.349121 561.041504 1730.794922 561.299805 1732.474365 561.299805 C 1734.878662 561.299805 1736.716309 560.803955 1737.995361 559.799805 C 1739.278809 558.799683 1739.920654 557.499634 1739.920654 555.899536 C 1739.920654 554.536987 1739.47876 553.478516 1738.599609 552.716064 C 1737.716309 551.957642 1736.195313 551.295044 1734.032715 550.736694 L 1725.990479 548.694946 C 1720.306885 547.253174 1716.064941 544.969727 1713.264893 541.848755 C 1710.460449 538.727661 1709.060547 534.806641 1709.060547 530.081299 C 1709.060547 526.401978 1710.081299 523.118408 1712.123047 520.234985 C 1714.160645 517.355591 1716.965088 515.11377 1720.523682 513.513672 C 1724.090576 511.913574 1728.190674 511.109375 1732.832764 511.109375 C 1737.47876 511.109375 1741.558105 511.871948 1745.083252 513.392822 C 1748.604492 514.913818 1751.325439 517.076416 1753.246338 519.876587 C 1755.167236 522.680908 1756.129883 525.922729 1756.129883 529.602173 C 1756.129883 530.322998 1755.892334 530.902222 1755.408936 531.343872 C 1754.929688 531.785645 1754.367188 532.002319 1753.729736 532.002319 L 1741.958252 532.002319 C 1741.241455 532.002319 1740.658203 531.785645 1740.220703 531.343872 C 1739.778809 530.902222 1739.558105 530.322998 1739.558105 529.602173 C 1739.47876 528.322876 1738.837158 527.202026 1737.637207 526.239502 C 1736.437012 525.281006 1734.832764 524.797729 1732.832764 524.797729 C 1730.669922 524.797729 1728.990723 525.218506 1727.790771 526.060303 C 1726.590576 526.901978 1725.990479 528.039551 1725.990479 529.481323 C 1725.990479 530.764771 1726.469727 531.764771 1727.432373 532.485596 C 1728.394775 533.202393 1730.032471 533.844116 1732.353516 534.406616 L 1740.999756 536.565063 C 1746.520996 538.006836 1750.562744 540.14856 1753.125488 542.990479 C 1755.688232 545.832275 1756.967285 549.853394 1756.967285 555.057861 C 1756.967285 559.062256 1755.988281 562.562378 1754.025635 565.562622 C 1752.062988 568.566895 1749.225342 570.908691 1745.5 572.588013 C 1741.779053 574.271484 1737.35376 575.109009 1732.236816 575.109009 C 1727.111572 575.109009 1722.665283 574.30896 1718.906738 572.708862"/>
</svg>
