<?xml version="1.0" encoding="UTF-8"?>
<!-- Generated by Pixelmator Pro 3.7.1 -->
<svg width="1017" height="1325" viewBox="0 0 1017 1325" xmlns="http://www.w3.org/2000/svg">
    <path id="Path" fill="#22493f" stroke="none" d="M 118.401611 1131.939941 C 120.214233 1130.677368 121.601807 1129.018921 122.547729 1126.9646 C 123.493591 1124.914551 123.968628 1122.701904 123.968628 1120.330933 C 123.968628 1118.122437 123.493591 1115.989014 122.547729 1113.934692 C 121.601807 1111.884521 120.176758 1110.226196 118.284973 1108.963501 C 116.389038 1107.700928 114.172241 1107.067627 111.651245 1107.067627 L 97.675415 1107.067627 C 97.042053 1107.067627 96.487854 1107.267578 96.016968 1107.659302 C 95.541992 1108.055176 95.304443 1108.646851 95.304443 1109.434448 L 95.304443 1131.464844 C 95.304443 1132.098267 95.541992 1132.652466 96.016968 1133.123291 C 96.487854 1133.598389 97.042053 1133.835815 97.675415 1133.835815 L 111.651245 1133.835815 C 114.334717 1133.835815 116.584839 1133.206665 118.401611 1131.939941 M 117.572449 1069.044556 C 119.309998 1067.861206 120.651794 1066.319336 121.601807 1064.427612 C 122.547729 1062.531738 123.018555 1060.481567 123.018555 1058.264771 C 123.018555 1054.947876 121.955994 1052.031006 119.822571 1049.501709 C 117.693237 1046.976563 115.043091 1045.709839 111.884583 1045.709839 L 97.675415 1045.709839 C 97.042053 1045.709839 96.487854 1045.909912 96.016968 1046.301514 C 95.541992 1046.697388 95.304443 1047.293335 95.304443 1048.080811 L 95.304443 1068.452881 C 95.304443 1070.032104 96.09198 1070.823853 97.675415 1070.823853 L 111.884583 1070.823853 C 113.938904 1070.823853 115.830627 1070.227905 117.572449 1069.044556 M 55.268799 1172.450562 C 54.322876 1171.50061 53.847839 1170.396362 53.847839 1169.133789 L 53.847839 1012.782959 C 53.847839 1011.520386 54.322876 1010.411987 55.268799 1009.466064 C 56.218811 1008.520142 57.318909 1008.045166 58.585632 1008.045166 L 114.730591 1008.045166 C 124.04364 1008.045166 132.61499 1010.141113 140.432068 1014.320557 C 148.249207 1018.508301 154.445435 1024.154419 159.028992 1031.259033 C 163.608459 1038.367798 165.900269 1046.030762 165.900269 1054.239502 C 165.900269 1060.556519 164.950195 1066.40271 163.05426 1071.769775 C 161.158325 1077.140869 158.08313 1081.953613 153.816223 1086.220581 C 153.182861 1086.853882 152.8703 1087.604004 152.8703 1088.470703 C 152.8703 1089.341553 153.182861 1090.008301 153.816223 1090.483276 C 158.39563 1094.116821 161.87085 1098.817139 164.241821 1104.579956 C 166.608643 1110.346924 167.792053 1116.384888 167.792053 1122.701904 C 167.792053 1132.969116 165.54187 1141.969604 161.041626 1149.707642 C 156.541382 1157.445557 150.299316 1163.408447 142.328064 1167.592041 C 134.3526 1171.779785 125.152039 1173.871582 114.730591 1173.871582 L 58.585632 1173.871582 C 57.318909 1173.871582 56.218811 1173.396484 55.268799 1172.450562"/>
    <path id="path1" fill="#22493f" stroke="none" d="M 192.190125 1172.448486 C 191.240051 1171.502686 190.769226 1170.398438 190.769226 1169.131714 L 190.769226 1012.780884 C 190.769226 1011.522461 191.240051 1010.414063 192.190125 1009.463989 C 193.140198 1008.518066 194.240234 1008.043091 195.506958 1008.043091 L 228.671448 1008.043091 C 229.934021 1008.043091 231.038208 1008.518066 231.988281 1009.463989 C 232.934204 1010.414063 233.40918 1011.522461 233.40918 1012.780884 L 233.40918 1169.131714 C 233.40918 1170.398438 232.934204 1171.502686 231.988281 1172.448486 C 231.038208 1173.394409 229.934021 1173.869385 228.671448 1173.869385 L 195.506958 1173.869385 C 194.240234 1173.869385 193.140198 1173.394409 192.190125 1172.448486"/>
    <path id="path2" fill="#22493f" stroke="none" d="M 291.445496 1172.922729 C 283.707581 1169.922607 277.386353 1165.501465 272.494385 1159.655273 C 266.81073 1152.867432 262.89801 1144.062744 260.768738 1133.241211 C 258.635254 1122.428101 257.572693 1108.331421 257.572693 1090.959595 C 257.572693 1079.588135 258.001892 1069.716675 258.872803 1061.345337 C 259.739502 1052.978149 261.239563 1045.515259 263.373047 1038.960693 C 265.506531 1032.406128 268.544189 1026.839233 272.494385 1022.259766 C 277.386353 1016.417725 283.707581 1011.992432 291.445496 1008.99231 C 299.183472 1005.992065 308.342346 1004.492065 318.92627 1004.492065 C 329.822754 1004.492065 339.656677 1006.625488 348.419678 1010.888184 C 357.182739 1015.151001 364.133057 1021.272217 369.266724 1029.247681 C 374.39624 1037.223145 376.963013 1046.582031 376.963013 1057.320068 C 376.963013 1058.582642 376.488037 1059.68689 375.542114 1060.636963 C 374.596191 1061.582886 373.487793 1062.057861 372.22522 1062.057861 L 338.589966 1062.057861 C 337.323181 1062.057861 336.177307 1061.582886 335.152222 1060.636963 C 334.123047 1059.68689 333.531311 1058.582642 333.377136 1057.320068 C 333.060486 1055.265869 332.3479 1053.490723 331.243713 1051.98645 C 330.139465 1050.490601 328.522705 1049.302979 326.389221 1048.436279 C 324.255798 1047.56958 321.768127 1047.13208 318.92627 1047.13208 C 315.134399 1047.13208 312.09259 1047.686279 309.804932 1048.790405 C 307.513123 1049.898804 305.738037 1051.632324 304.475464 1054.003296 C 303.367065 1056.215942 302.541992 1059.057739 301.987793 1062.528809 C 301.433594 1066.008179 301.116943 1070.270874 301.041931 1075.321167 C 300.958557 1080.379761 300.921082 1085.588501 300.921082 1090.959595 C 300.921082 1101.851929 301.116943 1110.027344 301.512756 1115.477661 C 301.90863 1120.923828 302.896179 1125.228271 304.475464 1128.386841 C 305.896362 1131.228638 307.829834 1133.362061 310.279968 1134.782959 C 312.725952 1136.203857 315.926147 1136.916504 319.872192 1136.916504 C 323.030701 1136.916504 325.714172 1136.287231 327.926819 1135.020508 C 330.139465 1133.757935 331.835388 1131.978638 333.022949 1129.69104 C 334.20636 1127.403442 334.798035 1124.678223 334.798035 1121.515503 L 334.798035 1119.148682 C 334.798035 1118.361206 334.598022 1117.765381 334.20636 1117.369507 C 333.810486 1116.977783 333.214661 1116.77771 332.431274 1116.77771 L 321.297241 1116.77771 C 320.026367 1116.77771 318.92627 1116.302734 317.980408 1115.356812 C 317.030334 1114.411011 316.555298 1113.306763 316.555298 1112.040039 L 316.555298 1082.429932 C 316.555298 1081.167358 317.030334 1080.05896 317.980408 1079.113037 C 318.92627 1078.167236 320.026367 1077.692139 321.297241 1077.692139 L 372.22522 1077.692139 C 373.487793 1077.692139 374.596191 1078.167236 375.542114 1079.113037 C 376.488037 1080.05896 376.963013 1081.167358 376.963013 1082.429932 L 376.963013 1109.435669 C 376.963013 1125.861694 374.792114 1139.087402 370.450195 1149.113037 C 366.104004 1159.146973 359.670288 1166.372314 351.144897 1170.789307 C 342.615173 1175.210327 331.872864 1177.422974 318.92627 1177.422974 C 308.342346 1177.422974 299.183472 1175.918701 291.445496 1172.922729"/>
    <path id="path3" fill="#22493f" stroke="none" d="M 515.199463 1131.939941 C 517.012085 1130.677368 518.399658 1129.018921 519.345581 1126.9646 C 520.291382 1124.914551 520.766479 1122.701904 520.766479 1120.330933 C 520.766479 1118.122437 520.291382 1115.989014 519.345581 1113.934692 C 518.399658 1111.884521 516.974609 1110.226196 515.082764 1108.963501 C 513.18689 1107.700928 510.970093 1107.067627 508.449097 1107.067627 L 494.473267 1107.067627 C 493.839844 1107.067627 493.285645 1107.267578 492.814819 1107.659302 C 492.339844 1108.055176 492.102295 1108.646851 492.102295 1109.434448 L 492.102295 1131.464844 C 492.102295 1132.098267 492.339844 1132.652466 492.814819 1133.123291 C 493.285645 1133.598389 493.839844 1133.835815 494.473267 1133.835815 L 508.449097 1133.835815 C 511.132568 1133.835815 513.38269 1133.206665 515.199463 1131.939941 M 514.370239 1069.044556 C 516.107788 1067.861206 517.449585 1066.319336 518.399658 1064.427612 C 519.345581 1062.531738 519.816406 1060.481567 519.816406 1058.264771 C 519.816406 1054.947876 518.753784 1052.031006 516.620361 1049.501709 C 514.491089 1046.976563 511.840942 1045.709839 508.682373 1045.709839 L 494.473267 1045.709839 C 493.839844 1045.709839 493.285645 1045.909912 492.814819 1046.301514 C 492.339844 1046.697388 492.102295 1047.293335 492.102295 1048.080811 L 492.102295 1068.452881 C 492.102295 1070.032104 492.889771 1070.823853 494.473267 1070.823853 L 508.682373 1070.823853 C 510.736694 1070.823853 512.628418 1070.227905 514.370239 1069.044556 M 452.06665 1172.450562 C 451.120728 1171.50061 450.64563 1170.396362 450.64563 1169.133789 L 450.64563 1012.782959 C 450.64563 1011.520386 451.120728 1010.411987 452.06665 1009.466064 C 453.016602 1008.520142 454.116699 1008.045166 455.383423 1008.045166 L 511.528442 1008.045166 C 520.841431 1008.045166 529.412842 1010.141113 537.229858 1014.320557 C 545.046997 1018.508301 551.243286 1024.154419 555.826782 1031.259033 C 560.40625 1038.367798 562.69812 1046.030762 562.69812 1054.239502 C 562.69812 1060.556519 561.748047 1066.40271 559.852051 1071.769775 C 557.956177 1077.140869 554.880981 1081.953613 550.614014 1086.220581 C 549.980713 1086.853882 549.668091 1087.604004 549.668091 1088.470703 C 549.668091 1089.341553 549.980713 1090.008301 550.614014 1090.483276 C 555.193481 1094.116821 558.668701 1098.817139 561.039673 1104.579956 C 563.406494 1110.346924 564.589844 1116.384888 564.589844 1122.701904 C 564.589844 1132.969116 562.339722 1141.969604 557.839478 1149.707642 C 553.339233 1157.445557 547.097168 1163.408447 539.125854 1167.592041 C 531.150391 1171.779785 521.949829 1173.871582 511.528442 1173.871582 L 455.383423 1173.871582 C 454.116699 1173.871582 453.016602 1173.396484 452.06665 1172.450562"/>
    <path id="path4" fill="#22493f" stroke="none" d="M 653.068359 1073.664429 C 654.880981 1072.560181 656.264404 1071.055908 657.214478 1069.164185 C 658.160278 1067.268188 658.635376 1065.059692 658.635376 1062.530396 C 658.635376 1058.738525 657.568604 1055.65918 655.435181 1053.292358 C 653.305908 1050.921387 650.422363 1049.738037 646.788818 1049.738037 L 632.575439 1049.738037 C 631.942139 1049.738037 631.39209 1049.937988 630.917114 1050.329712 C 630.442017 1050.725586 630.20874 1051.317261 630.20874 1052.109009 L 630.20874 1072.951904 C 630.20874 1074.535278 630.996216 1075.322876 632.575439 1075.322876 L 646.788818 1075.322876 C 649.15979 1075.322876 651.251587 1074.772827 653.068359 1073.664429 M 588.989624 1172.449341 C 588.039551 1171.503418 587.564575 1170.399292 587.564575 1169.132446 L 587.564575 1012.781738 C 587.564575 1011.519165 588.039551 1010.414917 588.989624 1009.464844 C 589.935547 1008.518921 591.039795 1008.043945 592.306519 1008.043945 L 647.263916 1008.043945 C 658.635376 1008.043945 668.502563 1010.414917 676.873901 1015.15271 C 685.245239 1019.890381 691.599731 1026.365845 695.945923 1034.578735 C 700.287842 1042.791748 702.45874 1052.109009 702.45874 1062.530396 C 702.45874 1071.531006 700.717041 1079.431396 697.250122 1086.21936 C 693.774902 1093.011353 688.720459 1099.328369 682.086792 1105.17041 C 680.507446 1106.591309 679.678223 1107.778931 679.599121 1108.724854 C 679.519897 1109.670654 679.874146 1111.095825 680.665771 1112.987549 L 701.512817 1165.578125 C 702.45874 1167.949097 702.57959 1169.924194 701.867065 1171.503418 C 701.158691 1173.082764 699.616943 1173.870239 697.250122 1173.870239 L 664.31897 1173.870239 C 662.581421 1173.870239 661.239624 1173.553589 660.293823 1172.924438 C 659.34375 1172.295166 658.635376 1171.345093 658.160278 1170.078369 L 638.263306 1117.725342 C 637.942505 1116.937744 637.588257 1116.425293 637.196655 1116.187744 C 636.800781 1115.950195 636.284058 1115.829346 635.654907 1115.829346 L 632.575439 1115.829346 C 631.942139 1115.829346 631.39209 1116.029419 630.917114 1116.425293 C 630.442017 1116.821167 630.20874 1117.412842 630.20874 1118.200317 L 630.20874 1169.132446 C 630.20874 1170.399292 629.733643 1171.503418 628.783569 1172.449341 C 627.837769 1173.395264 626.733521 1173.870239 625.470947 1173.870239 L 592.306519 1173.870239 C 591.039795 1173.870239 589.935547 1173.395264 588.989624 1172.449341"/>
    <path id="path5" fill="#22493f" stroke="none" d="M 751.261597 1171.264771 C 742.573608 1167.160278 735.627319 1160.764038 730.414551 1152.07605 C 725.201782 1143.392212 722.597412 1132.495728 722.597412 1119.382446 L 722.597412 1012.784546 C 722.597412 1011.521973 723.07251 1010.413574 724.018311 1009.467773 C 724.968384 1008.5177 726.068481 1008.046875 727.335205 1008.046875 L 760.499634 1008.046875 C 761.762207 1008.046875 762.870605 1008.5177 763.816528 1009.467773 C 764.762451 1010.413574 765.237427 1011.521973 765.237427 1012.784546 L 765.237427 1119.619995 C 765.237427 1122.466064 765.829102 1125.032837 767.016724 1127.320435 C 768.200073 1129.612305 769.937744 1131.429077 772.225342 1132.770752 C 774.512939 1134.112549 777.238159 1134.783447 780.400879 1134.783447 C 785.13855 1134.783447 788.92627 1133.362549 791.768188 1130.52063 C 794.614136 1127.674683 796.035034 1124.045288 796.035034 1119.619995 L 796.035034 1012.784546 C 796.035034 1011.521973 796.510132 1010.413574 797.455933 1009.467773 C 798.401855 1008.5177 799.506104 1008.046875 800.772827 1008.046875 L 833.937256 1008.046875 C 835.199829 1008.046875 836.308228 1008.5177 837.25415 1009.467773 C 838.200073 1010.413574 838.675049 1011.521973 838.675049 1012.784546 L 838.675049 1119.382446 C 838.675049 1132.495728 836.070801 1143.392212 830.85791 1152.07605 C 825.645142 1160.764038 818.657227 1167.160278 809.894165 1171.264771 C 801.127075 1175.369141 791.297241 1177.423462 780.400879 1177.423462 C 769.658569 1177.423462 759.945435 1175.369141 751.261597 1171.264771"/>
    <path id="path6" fill="#22493f" stroke="none" d="M 867.573853 1172.448486 C 866.623779 1171.502686 866.152954 1170.398438 866.152954 1169.131714 L 866.152954 1012.780884 C 866.152954 1011.522461 866.623779 1010.414063 867.573853 1009.463989 C 868.523926 1008.518066 869.624023 1008.043091 870.890747 1008.043091 L 959.25 1008.043091 C 960.512573 1008.043091 961.620972 1008.518066 962.566895 1009.463989 C 963.512817 1010.414063 963.987793 1011.522461 963.987793 1012.780884 L 963.987793 1044.99939 C 963.987793 1046.266113 963.512817 1047.370361 962.566895 1048.316284 C 961.620972 1049.262207 960.512573 1049.737183 959.25 1049.737183 L 911.16394 1049.737183 C 910.530518 1049.737183 909.976318 1049.937134 909.505493 1050.328857 C 909.030396 1050.724731 908.792969 1051.316406 908.792969 1052.108154 L 908.792969 1066.55896 C 908.792969 1068.138306 909.580444 1068.925781 911.16394 1068.925781 L 957.354126 1068.925781 C 958.616699 1068.925781 959.725098 1069.400879 960.670898 1070.34668 C 961.620972 1071.296753 962.096069 1072.401001 962.096069 1073.663574 L 962.096069 1105.88208 C 962.096069 1107.148926 961.620972 1108.248901 960.670898 1109.198975 C 959.725098 1110.144897 958.616699 1110.619873 957.354126 1110.619873 L 911.16394 1110.619873 C 910.530518 1110.619873 909.976318 1110.819946 909.505493 1111.21167 C 909.030396 1111.607422 908.792969 1112.199219 908.792969 1112.986694 L 908.792969 1129.808594 C 908.792969 1131.387817 909.580444 1132.175293 911.16394 1132.175293 L 960.200073 1132.175293 C 961.462646 1132.175293 962.566895 1132.650391 963.512817 1133.596191 C 964.462891 1134.546265 964.937866 1135.654663 964.937866 1136.913086 L 964.937866 1169.131714 C 964.937866 1170.398438 964.462891 1171.502686 963.512817 1172.448486 C 962.566895 1173.394409 961.462646 1173.869385 960.200073 1173.869385 L 870.890747 1173.869385 C 869.624023 1173.869385 868.523926 1173.394409 867.573853 1172.448486"/>
    <path id="path7" fill="#22493f" stroke="none" d="M 65.752319 1273.948608 C 62.077087 1272.144409 59.172729 1269.569214 57.043457 1266.223145 C 54.910034 1262.881348 53.847412 1259.043579 53.847412 1254.714233 L 53.847412 1254.222534 C 53.847412 1253.69751 54.043274 1253.239136 54.434998 1252.843262 C 54.830811 1252.451538 55.289185 1252.251587 55.814209 1252.251587 L 67.523254 1252.251587 C 68.048279 1252.251587 68.506653 1252.451538 68.902466 1252.843262 C 69.294189 1253.239136 69.490051 1253.69751 69.490051 1254.222534 L 69.490051 1255.205933 C 69.490051 1256.647583 69.852539 1257.92688 70.573425 1259.043579 C 71.294312 1260.160278 72.311035 1261.0271 73.623596 1261.647949 C 74.936157 1262.272949 76.411255 1262.585449 78.05304 1262.585449 C 80.544861 1262.585449 82.578308 1261.9104 84.153381 1260.568726 C 85.724304 1259.222778 86.511841 1257.535156 86.511841 1255.501709 C 86.511841 1253.597412 85.936829 1252.055664 84.790894 1250.876465 C 83.64502 1249.692993 81.886597 1248.776367 79.528137 1248.12207 L 71.1651 1245.859497 C 66.244019 1244.546875 62.422974 1242.134277 59.701965 1238.625732 C 56.980957 1235.117188 55.618408 1230.871094 55.618408 1225.883301 C 55.618408 1221.949707 56.601746 1218.391235 58.568542 1215.207642 C 60.53949 1212.02832 63.256348 1209.536499 66.735718 1207.7323 C 70.210876 1205.927979 74.148621 1205.023804 78.544739 1205.023804 C 82.869995 1205.023804 86.761841 1205.861328 90.203735 1207.532227 C 93.64563 1209.207397 96.316589 1211.565796 98.225037 1214.615967 C 100.120972 1217.670288 101.075195 1221.162231 101.075195 1225.095825 L 101.075195 1225.783325 C 101.075195 1226.3125 100.879333 1226.770874 100.483521 1227.162598 C 100.091797 1227.558472 99.633484 1227.754272 99.108398 1227.754272 L 87.791077 1227.754272 C 87.266052 1227.754272 86.807678 1227.558472 86.416016 1227.162598 C 86.020142 1226.770874 85.824341 1226.3125 85.824341 1225.783325 L 85.824341 1225.095825 C 85.824341 1223.262329 85.170105 1221.799805 83.853394 1220.716309 C 82.540771 1219.637085 80.774048 1219.095459 78.544739 1219.095459 C 76.311279 1219.095459 74.506958 1219.653809 73.131897 1220.766357 C 71.752686 1221.883057 71.065125 1223.324829 71.065125 1225.095825 C 71.065125 1226.866699 71.640137 1228.296021 72.786072 1229.375244 C 73.931946 1230.458618 75.786255 1231.362793 78.344727 1232.08374 L 86.020142 1234.346313 C 91.332947 1235.921387 95.333191 1238.379883 98.025024 1241.725952 C 100.716858 1245.071899 102.058594 1249.334717 102.058594 1254.51416 C 102.058594 1258.910278 101.025208 1262.797974 98.958435 1266.177368 C 96.895813 1269.556763 94.058105 1272.144409 90.449585 1273.948608 C 86.841064 1275.75293 82.774109 1276.652954 78.248901 1276.652954 C 73.590271 1276.652954 69.427551 1275.75293 65.752319 1273.948608"/>
    <path id="path8" fill="#22493f" stroke="none" d="M 113.375916 1274.687012 C 112.980042 1274.291138 112.784241 1273.836914 112.784241 1273.307739 L 112.784241 1227.555054 C 112.784241 1227.030029 112.980042 1226.571655 113.375916 1226.180054 C 113.77179 1225.78418 114.225952 1225.588257 114.755188 1225.588257 L 122.03479 1225.588257 C 122.688965 1225.588257 123.180664 1225.704956 123.509827 1225.934204 C 123.8349 1226.16333 124.164063 1226.53833 124.493225 1227.063354 C 124.818237 1227.525879 125.118286 1227.867554 125.380798 1228.096802 C 125.63916 1228.330078 126.001648 1228.442627 126.464172 1228.442627 C 126.789185 1228.442627 127.164246 1228.330078 127.593445 1228.096802 C 128.018433 1227.867554 128.430969 1227.588379 128.822693 1227.263428 C 130.001892 1226.275879 131.201965 1225.525757 132.414551 1224.996582 C 133.627136 1224.475708 135.252197 1224.213257 137.285645 1224.213257 C 139.514954 1224.213257 141.335876 1224.571533 142.744324 1225.29248 C 144.156921 1226.017456 145.45282 1226.967529 146.632019 1228.146851 C 147.090393 1228.542603 147.548767 1228.884277 148.007141 1229.180176 C 148.465454 1229.476074 148.894653 1229.621826 149.290527 1229.621826 C 149.682251 1229.621826 150.090576 1229.476074 150.519775 1229.180176 C 150.944763 1228.884277 151.4198 1228.509277 151.944824 1228.050903 C 153.324097 1226.867554 154.761658 1225.934204 156.274292 1225.246582 C 157.782715 1224.554932 159.782837 1224.213257 162.278809 1224.213257 C 165.620667 1224.213257 168.524963 1224.934082 170.983459 1226.375854 C 173.441956 1227.821777 175.346252 1229.901001 176.692139 1232.626221 C 178.033875 1235.347168 178.708923 1238.609863 178.708923 1242.414307 L 178.708923 1273.307739 C 178.708923 1273.836914 178.508911 1274.291138 178.117188 1274.687012 C 177.725525 1275.078735 177.263 1275.278687 176.737976 1275.278687 L 166.508179 1275.278687 C 165.979004 1275.278687 165.52063 1275.078735 165.133118 1274.687012 C 164.737244 1274.291138 164.537231 1273.836914 164.537231 1273.307739 L 164.537231 1243.98938 C 164.537231 1242.218506 163.995544 1240.839233 162.916321 1239.855835 C 161.832947 1238.872437 160.407837 1238.380737 158.636902 1238.380737 C 156.865967 1238.380737 155.453369 1238.872437 154.40332 1239.855835 C 153.353271 1240.839233 152.832397 1242.218506 152.832397 1243.98938 L 152.832397 1273.307739 C 152.832397 1273.836914 152.632385 1274.291138 152.240723 1274.687012 C 151.844849 1275.078735 151.386475 1275.278687 150.86145 1275.278687 L 140.627502 1275.278687 C 140.102478 1275.278687 139.644104 1275.078735 139.252441 1274.687012 C 138.856567 1274.291138 138.660767 1273.836914 138.660767 1273.307739 L 138.660767 1243.98938 C 138.660767 1242.218506 138.12323 1240.839233 137.039795 1239.855835 C 135.956421 1238.872437 134.531311 1238.380737 132.760376 1238.380737 C 130.989441 1238.380737 129.576904 1238.872437 128.526794 1239.855835 C 127.476746 1240.839233 126.951721 1242.218506 126.951721 1243.98938 L 126.951721 1273.307739 C 126.951721 1273.836914 126.755859 1274.291138 126.364197 1274.687012 C 125.968323 1275.078735 125.509949 1275.278687 124.984924 1275.278687 L 114.755188 1275.278687 C 114.225952 1275.278687 113.77179 1275.078735 113.375916 1274.687012"/>
    <path id="path9" fill="#22493f" stroke="none" d="M 212.505493 1264.50354 C 213.651367 1264.011841 214.555603 1263.257568 215.213989 1262.240845 C 215.864014 1261.224121 216.193176 1259.961548 216.193176 1258.453125 L 216.193176 1256.090454 C 216.193176 1255.761353 216.109863 1255.498779 215.947327 1255.302979 C 215.784851 1255.107178 215.539001 1255.00708 215.213989 1255.00708 L 207.834351 1255.00708 C 206.125916 1255.00708 204.780029 1255.453003 203.796631 1256.336304 C 202.813232 1257.223877 202.321533 1258.4198 202.321533 1259.928223 C 202.321533 1261.569946 202.875732 1262.865967 203.996643 1263.815918 C 205.109192 1264.765991 206.651001 1265.241089 208.621948 1265.241089 C 210.06366 1265.241089 211.355408 1264.995239 212.505493 1264.50354 M 196.417053 1274.587402 C 193.925232 1273.212402 192.008423 1271.27478 190.662537 1268.782959 C 189.31665 1266.291138 188.645752 1263.407593 188.645752 1260.124023 C 188.645752 1257.17395 189.283264 1254.50293 190.562561 1252.106934 C 191.841797 1249.710938 193.762695 1247.810913 196.321228 1246.398315 C 198.875488 1244.989868 201.963196 1244.285645 205.567566 1244.285645 L 215.213989 1244.285645 C 215.539001 1244.285645 215.784851 1244.185669 215.947327 1243.989746 C 216.109863 1243.789795 216.193176 1243.560669 216.193176 1243.298096 L 216.193176 1241.822998 C 216.193176 1239.989624 215.668152 1238.593628 214.618103 1237.643555 C 213.572205 1236.693481 211.997131 1236.214355 209.896973 1236.214355 C 208.059387 1236.214355 206.634277 1236.543579 205.617554 1237.197754 C 204.60083 1237.856079 203.929993 1238.772827 203.600769 1239.952026 C 203.404968 1240.543823 203.138245 1240.922974 202.813232 1241.085449 C 202.48407 1241.252197 201.963196 1241.331299 201.24231 1241.331299 L 192.579346 1241.331299 C 191.92511 1241.331299 191.433411 1241.1521 191.104248 1240.789673 C 190.775024 1240.431274 190.612549 1239.922852 190.612549 1239.264526 C 190.612549 1236.839355 191.383423 1234.460083 192.925171 1232.130737 C 194.466919 1229.805664 196.696228 1227.901367 199.617249 1226.42627 C 202.534058 1224.951172 205.96344 1224.209473 209.896973 1224.209473 C 214.030579 1224.209473 217.539124 1224.93457 220.426758 1226.376221 C 223.310303 1227.817993 225.510437 1229.868164 227.01886 1232.526611 C 228.527283 1235.180908 229.281494 1238.314453 229.281494 1241.922974 L 229.281494 1273.308228 C 229.281494 1273.833252 229.085632 1274.291626 228.689758 1274.687378 C 228.298096 1275.079102 227.839722 1275.279175 227.310547 1275.279175 L 220.818481 1275.279175 C 220.226746 1275.279175 219.768433 1275.145752 219.443359 1274.883301 C 219.114197 1274.620728 218.755859 1274.229126 218.359985 1273.704102 C 218.030823 1273.245728 217.734985 1272.916504 217.472412 1272.720703 C 217.2099 1272.52063 216.847412 1272.424805 216.389038 1272.424805 C 216.064026 1272.424805 215.701477 1272.537354 215.309814 1272.766479 C 214.918152 1272.999878 214.522278 1273.274902 214.130554 1273.604004 C 212.884644 1274.524902 211.601257 1275.262451 210.292847 1275.81665 C 208.980286 1276.375 207.209351 1276.654175 204.980042 1276.654175 C 201.763184 1276.654175 198.908875 1275.966675 196.417053 1274.587402"/>
    <path id="path10" fill="#22493f" stroke="none" d="M 241.971802 1274.687012 C 241.575928 1274.291138 241.380066 1273.836914 241.380066 1273.307739 L 241.380066 1207.387207 C 241.380066 1206.862183 241.575928 1206.403809 241.971802 1206.007935 C 242.367676 1205.616333 242.821838 1205.41626 243.351013 1205.41626 L 253.580811 1205.41626 C 254.105835 1205.41626 254.564209 1205.616333 254.960083 1206.007935 C 255.351746 1206.403809 255.547607 1206.862183 255.547607 1207.387207 L 255.547607 1273.307739 C 255.547607 1273.836914 255.351746 1274.291138 254.960083 1274.687012 C 254.564209 1275.078735 254.105835 1275.278687 253.580811 1275.278687 L 243.351013 1275.278687 C 242.821838 1275.278687 242.367676 1275.078735 241.971802 1274.687012"/>
    <path id="path11" fill="#22493f" stroke="none" d="M 268.536682 1274.687012 C 268.140808 1274.291138 267.945007 1273.836914 267.945007 1273.307739 L 267.945007 1207.387207 C 267.945007 1206.862183 268.140808 1206.403809 268.536682 1206.007935 C 268.932556 1205.616333 269.386719 1205.41626 269.915955 1205.41626 L 280.145691 1205.41626 C 280.670715 1205.41626 281.129089 1205.616333 281.524963 1206.007935 C 281.916626 1206.403809 282.112488 1206.862183 282.112488 1207.387207 L 282.112488 1273.307739 C 282.112488 1273.836914 281.916626 1274.291138 281.524963 1274.687012 C 281.129089 1275.078735 280.670715 1275.278687 280.145691 1275.278687 L 269.915955 1275.278687 C 269.386719 1275.278687 268.932556 1275.078735 268.536682 1274.687012"/>
    <path id="path12" fill="#22493f" stroke="none" d="M 327.17511 1274.687012 C 326.779236 1274.291138 326.587585 1273.836914 326.587585 1273.307739 L 326.587585 1222.43811 C 326.587585 1221.783936 326.254211 1221.454712 325.604187 1221.454712 L 313.599304 1221.454712 C 313.07428 1221.454712 312.615906 1221.258911 312.220093 1220.867188 C 311.828369 1220.471313 311.628357 1220.012939 311.628357 1219.487915 L 311.628357 1208.370605 C 311.628357 1207.845581 311.828369 1207.387207 312.220093 1206.991333 C 312.615906 1206.599731 313.07428 1206.403809 313.599304 1206.403809 L 354.726685 1206.403809 C 355.247559 1206.403809 355.710083 1206.599731 356.101807 1206.991333 C 356.497681 1207.387207 356.693481 1207.845581 356.693481 1208.370605 L 356.693481 1219.487915 C 356.693481 1220.012939 356.497681 1220.471313 356.101807 1220.867188 C 355.710083 1221.258911 355.247559 1221.454712 354.726685 1221.454712 L 342.721863 1221.454712 C 342.459351 1221.454712 342.230164 1221.538086 342.034302 1221.700562 C 341.83429 1221.86731 341.738464 1222.113159 341.738464 1222.43811 L 341.738464 1273.307739 C 341.738464 1273.836914 341.538452 1274.291138 341.14679 1274.687012 C 340.750916 1275.078735 340.292542 1275.278687 339.767517 1275.278687 L 328.554382 1275.278687 C 328.025146 1275.278687 327.570984 1275.078735 327.17511 1274.687012"/>
    <path id="path13" fill="#22493f" stroke="none" d="M 381.287842 1261.649536 C 382.337891 1261.157837 383.121338 1260.453735 383.646362 1259.532837 C 384.175537 1258.682739 384.521362 1257.615967 384.68396 1256.336792 C 384.846436 1255.057495 384.929688 1253.074097 384.929688 1250.382202 C 384.929688 1247.69458 384.846436 1245.727783 384.68396 1244.481934 C 384.521362 1243.235962 384.175537 1242.185913 383.646362 1241.331787 C 383.121338 1240.415039 382.337891 1239.694092 381.287842 1239.164917 C 380.237793 1238.644043 378.929443 1238.381592 377.350098 1238.381592 C 375.779175 1238.381592 374.483276 1238.644043 373.466553 1239.164917 C 372.449829 1239.694092 371.64563 1240.415039 371.053955 1241.331787 C 370.528931 1242.185913 370.187256 1243.235962 370.024658 1244.481934 C 369.858032 1245.727783 369.774658 1247.69458 369.774658 1250.382202 C 369.774658 1253.074097 369.858032 1255.057495 370.024658 1256.336792 C 370.187256 1257.615967 370.528931 1258.682739 371.053955 1259.532837 C 371.64563 1260.453735 372.449829 1261.157837 373.466553 1261.649536 C 374.483276 1262.141235 375.779175 1262.387085 377.350098 1262.387085 C 378.929443 1262.387085 380.237793 1262.141235 381.287842 1261.649536 M 367.120361 1274.442017 C 364.036865 1272.962769 361.578369 1270.945923 359.740723 1268.387451 C 358.165649 1266.291504 357.04895 1263.878906 356.394775 1261.157837 C 355.736328 1258.43689 355.411377 1254.844971 355.411377 1250.382202 C 355.411377 1247.365356 355.544678 1244.790283 355.807251 1242.661011 C 356.065552 1240.527466 356.511475 1238.644043 357.132324 1237.002319 C 357.757324 1235.364746 358.624023 1233.822998 359.740723 1232.377075 C 361.578369 1229.818604 364.036865 1227.818481 367.120361 1226.376709 C 370.203857 1224.934937 373.612427 1224.209839 377.350098 1224.209839 C 381.092041 1224.209839 384.50061 1224.934937 387.584106 1226.376709 C 390.667603 1227.818481 393.130249 1229.818604 394.963623 1232.377075 C 396.538818 1234.543823 397.655518 1236.968994 398.309692 1239.656616 C 398.963867 1242.348511 399.293091 1245.923706 399.293091 1250.382202 C 399.293091 1253.40332 399.16394 1255.978394 398.901367 1258.107666 C 398.638916 1260.241211 398.197144 1262.124634 397.572144 1263.766357 C 396.947144 1265.403931 396.080444 1266.945679 394.963623 1268.387451 C 393.130249 1270.945923 390.667603 1272.962769 387.584106 1274.442017 C 384.50061 1275.917114 381.092041 1276.654663 377.350098 1276.654663 C 373.612427 1276.654663 370.203857 1275.917114 367.120361 1274.442017"/>
    <path id="path14" fill="#22493f" stroke="none" d="M 418.08252 1274.883301 C 417.757446 1274.620728 417.52417 1274.262451 417.39502 1273.799927 L 404.998413 1228.934692 C 404.735962 1227.817993 404.785889 1226.984619 405.144287 1226.42627 C 405.506836 1225.86792 406.244385 1225.588745 407.361084 1225.588745 L 416.215698 1225.588745 C 417.199097 1225.588745 417.819946 1226.080444 418.08252 1227.063843 L 424.578735 1253.040283 C 424.707886 1253.436157 424.987061 1253.63208 425.412109 1253.63208 C 425.841309 1253.63208 426.087158 1253.436157 426.153809 1253.040283 L 433.041748 1227.063843 C 433.304199 1226.080444 433.925171 1225.588745 434.908447 1225.588745 L 442.192261 1225.588745 C 443.175659 1225.588745 443.796509 1226.080444 444.059082 1227.063843 L 450.946899 1253.040283 C 451.080322 1253.436157 451.355347 1253.63208 451.784546 1253.63208 C 452.209473 1253.63208 452.455322 1253.436157 452.517822 1253.040283 L 459.014038 1227.063843 C 459.276611 1226.080444 459.897461 1225.588745 460.88501 1225.588745 L 469.839722 1225.588745 C 470.889771 1225.588745 471.593994 1225.86792 471.956543 1226.42627 C 472.314819 1226.984619 472.360718 1227.817993 472.102295 1228.934692 L 459.801636 1273.799927 C 459.539063 1274.787476 458.914063 1275.279175 457.934814 1275.279175 L 448.192627 1275.279175 C 447.271729 1275.279175 446.650879 1274.787476 446.321655 1273.799927 L 439.337891 1250.581909 C 439.27124 1250.186035 439.025391 1249.990112 438.600342 1249.990112 C 438.171143 1249.990112 437.891968 1250.186035 437.762817 1250.581909 L 430.774902 1273.799927 C 430.645752 1274.262451 430.416626 1274.620728 430.087402 1274.883301 C 429.758179 1275.145752 429.366455 1275.279175 428.908203 1275.279175 L 419.265869 1275.279175 C 418.807617 1275.279175 418.411743 1275.145752 418.08252 1274.883301"/>
    <path id="path15" fill="#22493f" stroke="none" d="M 481.842529 1274.687012 C 481.446655 1274.291138 481.250854 1273.836914 481.250854 1273.307739 L 481.250854 1227.555054 C 481.250854 1227.030029 481.446655 1226.571655 481.842529 1226.180054 C 482.238403 1225.78418 482.692505 1225.588257 483.221802 1225.588257 L 490.501343 1225.588257 C 491.155518 1225.588257 491.647217 1225.704956 491.97644 1225.934204 C 492.301392 1226.16333 492.630615 1226.53833 492.959839 1227.063354 C 493.28479 1227.525879 493.584839 1227.867554 493.847412 1228.096802 C 494.105713 1228.330078 494.468262 1228.442627 494.930786 1228.442627 C 495.38916 1228.442627 495.830811 1228.313477 496.255859 1228.050903 C 496.680908 1227.788452 497.122559 1227.492554 497.585083 1227.163452 C 498.960205 1226.246704 500.339478 1225.525757 501.714478 1224.996582 C 503.09375 1224.475708 504.927246 1224.213257 507.227295 1224.213257 C 510.244141 1224.213257 512.96521 1224.967407 515.394531 1226.47583 C 517.81958 1227.984253 519.723877 1230.113525 521.098999 1232.87207 C 522.478271 1235.626343 523.165771 1238.709961 523.165771 1242.118408 L 523.165771 1273.307739 C 523.165771 1273.836914 522.969971 1274.291138 522.578247 1274.687012 C 522.182373 1275.078735 521.719849 1275.278687 521.198975 1275.278687 L 510.965088 1275.278687 C 510.440063 1275.278687 509.981689 1275.078735 509.589966 1274.687012 C 509.194092 1274.291138 508.998291 1273.836914 508.998291 1273.307739 L 508.998291 1244.872803 C 508.998291 1242.776855 508.389893 1241.168335 507.177368 1240.051636 C 505.964722 1238.939087 504.306274 1238.380737 502.210327 1238.380737 C 500.110229 1238.380737 498.451782 1238.939087 497.239258 1240.051636 C 496.026611 1241.168335 495.418335 1242.776855 495.418335 1244.872803 L 495.418335 1273.307739 C 495.418335 1273.836914 495.222412 1274.291138 494.830811 1274.687012 C 494.434937 1275.078735 493.976563 1275.278687 493.451538 1275.278687 L 483.221802 1275.278687 C 482.692505 1275.278687 482.238403 1275.078735 481.842529 1274.687012"/>
    <path id="path16" fill="#22493f" stroke="none" d="M 534.485229 1288.216187 C 534.156006 1287.591064 534.156006 1286.853516 534.485229 1286.00354 L 538.0271 1276.75293 C 538.15625 1276.361328 538.139526 1276.015381 537.977051 1275.719604 C 537.814575 1275.423706 537.5354 1275.277832 537.139526 1275.277832 L 535.468506 1275.277832 C 534.943481 1275.277832 534.485229 1275.082031 534.089355 1274.686157 C 533.697632 1274.294434 533.497559 1273.836182 533.497559 1273.311157 L 533.497559 1259.631104 C 533.497559 1259.110229 533.697632 1258.647705 534.089355 1258.256104 C 534.485229 1257.860229 534.943481 1257.664307 535.468506 1257.664307 L 547.173462 1257.664307 C 547.698486 1257.664307 548.161011 1257.860229 548.556885 1258.256104 C 548.944336 1258.647705 549.144409 1259.110229 549.144409 1259.631104 L 549.144409 1272.423584 C 549.144409 1273.602783 548.981812 1274.702881 548.65271 1275.719604 C 548.323486 1276.736328 547.798462 1277.932251 547.077637 1279.311401 L 542.94812 1287.182739 C 542.681519 1287.774414 542.25647 1288.249512 541.664795 1288.607788 C 541.077271 1288.970337 540.352173 1289.149536 539.502075 1289.149536 L 536.156128 1289.149536 C 535.36853 1289.149536 534.810181 1288.837036 534.485229 1288.216187"/>
    <path id="path17" fill="#22493f" stroke="none" d="M 609.157471 1259.976929 C 610.20752 1259.289429 611.028442 1258.389404 611.615967 1257.272705 C 612.211792 1256.155884 612.50354 1254.943359 612.50354 1253.630737 C 612.50354 1252.318237 612.211792 1251.105591 611.615967 1249.988892 C 611.028442 1248.876343 610.20752 1247.98877 609.157471 1247.334595 C 608.111572 1246.68042 606.894775 1246.351196 605.519775 1246.351196 L 598.235962 1246.351196 C 597.973511 1246.351196 597.744263 1246.43457 597.548462 1246.597046 C 597.352661 1246.759521 597.252563 1247.005371 597.252563 1247.334595 L 597.252563 1260.026978 C 597.252563 1260.289551 597.352661 1260.518677 597.548462 1260.714478 C 597.744263 1260.9104 597.973511 1261.010376 598.235962 1261.010376 L 605.519775 1261.010376 C 606.894775 1261.010376 608.111572 1260.664551 609.157471 1259.976929 M 608.815796 1232.379517 C 609.761719 1231.787842 610.503418 1230.983643 611.028442 1229.966919 C 611.553467 1228.950195 611.815918 1227.850098 611.815918 1226.670898 C 611.815918 1224.837402 611.224243 1223.245728 610.045044 1221.89978 C 608.861572 1220.553833 607.4198 1219.882935 605.715576 1219.882935 L 598.235962 1219.882935 C 597.973511 1219.882935 597.744263 1219.966309 597.548462 1220.128784 C 597.352661 1220.291382 597.252563 1220.537231 597.252563 1220.866333 L 597.252563 1232.279541 C 597.252563 1232.933716 597.577637 1233.262939 598.235962 1233.262939 L 605.715576 1233.262939 C 606.828125 1233.262939 607.861572 1232.967041 608.815796 1232.379517 M 583.180908 1274.686157 C 582.789307 1274.294434 582.593384 1273.836182 582.593384 1273.306885 L 582.593384 1208.369751 C 582.593384 1207.844727 582.789307 1207.386353 583.180908 1206.990601 C 583.576782 1206.598877 584.035156 1206.403076 584.560181 1206.403076 L 606.503174 1206.403076 C 610.240845 1206.403076 613.682739 1207.257202 616.832886 1208.961548 C 619.983154 1210.665771 622.474854 1212.978394 624.30835 1215.895264 C 626.145996 1218.816284 627.062622 1221.983154 627.062622 1225.391602 C 627.062622 1227.950073 626.637695 1230.362793 625.787598 1232.625366 C 624.93335 1234.888062 623.591675 1236.87146 621.754028 1238.575684 C 621.424805 1238.904907 621.262329 1239.250732 621.262329 1239.609131 C 621.262329 1239.97168 621.424805 1240.250854 621.754028 1240.446655 C 623.720825 1242.021729 625.24585 1244.038574 626.329346 1246.49707 C 627.408569 1248.955566 627.950195 1251.563965 627.950195 1254.318359 C 627.950195 1258.451904 627.033447 1262.110474 625.195923 1265.289795 C 623.358276 1268.473267 620.820679 1270.931763 617.570435 1272.669434 C 614.324463 1274.406982 610.632568 1275.277832 606.503174 1275.277832 L 584.560181 1275.277832 C 584.035156 1275.277832 583.576782 1275.082031 583.180908 1274.686157"/>
    <path id="path18" fill="#22493f" stroke="none" d="M 639.514282 1274.7854 C 639.218384 1274.456177 639.068359 1274.064453 639.068359 1273.606079 L 639.068359 1227.261719 C 639.068359 1226.803345 639.218384 1226.411743 639.514282 1226.08252 C 639.810059 1225.753296 640.218506 1225.59082 640.74353 1225.59082 L 651.564941 1225.59082 C 652.089966 1225.59082 652.502441 1225.753296 652.79834 1226.08252 C 653.090088 1226.411743 653.23999 1226.803345 653.23999 1227.261719 L 653.23999 1273.606079 C 653.23999 1274.064453 653.090088 1274.456177 652.79834 1274.7854 C 652.502441 1275.114502 652.089966 1275.2771 651.564941 1275.2771 L 640.74353 1275.2771 C 640.218506 1275.2771 639.810059 1275.114502 639.514282 1274.7854 M 639.314209 1219.044556 C 639.022583 1218.748779 638.872559 1218.373657 638.872559 1217.915405 L 638.872559 1207.485596 C 638.872559 1207.089722 639.022583 1206.731323 639.314209 1206.402222 C 639.610107 1206.072998 639.989258 1205.910522 640.447632 1205.910522 L 651.86084 1205.910522 C 652.319214 1205.910522 652.698364 1206.072998 652.98999 1206.402222 C 653.290039 1206.731323 653.435913 1207.089722 653.435913 1207.485596 L 653.435913 1217.915405 C 653.435913 1218.373657 653.290039 1218.748779 652.98999 1219.044556 C 652.698364 1219.340454 652.319214 1219.486328 651.86084 1219.486328 L 640.447632 1219.486328 C 639.989258 1219.486328 639.610107 1219.340454 639.314209 1219.044556"/>
    <path id="path19" fill="#22493f" stroke="none" d="M 689.052979 1260.026611 C 690.036377 1259.568237 690.790527 1258.90979 691.315552 1258.059814 C 691.773926 1257.205566 692.086426 1256.205566 692.249023 1255.05542 C 692.411499 1253.909546 692.494873 1252.088623 692.494873 1249.596802 C 692.494873 1247.03833 692.411499 1245.184082 692.249023 1244.038086 C 692.086426 1242.892212 691.773926 1241.921387 691.315552 1241.133789 C 690.790527 1240.283691 690.052979 1239.608765 689.103027 1239.117065 C 688.148804 1238.625366 686.952881 1238.379517 685.511108 1238.379517 C 684.065186 1238.379517 682.856812 1238.625366 681.869263 1239.117065 C 680.885864 1239.608765 680.131592 1240.283691 679.606567 1241.133789 C 679.148193 1241.921387 678.835693 1242.892212 678.673218 1244.038086 C 678.510742 1245.184082 678.427368 1247.03833 678.427368 1249.596802 C 678.427368 1252.088623 678.510742 1253.909546 678.673218 1255.05542 C 678.835693 1256.205566 679.148193 1257.205566 679.606567 1258.059814 C 680.131592 1258.90979 680.902466 1259.568237 681.919189 1260.026611 C 682.935913 1260.484985 684.131836 1260.714111 685.511108 1260.714111 C 686.88623 1260.714111 688.06958 1260.484985 689.052979 1260.026611 M 676.310547 1292.495117 C 673.389526 1291.249268 671.131104 1289.544922 669.522705 1287.378174 C 667.914185 1285.215576 667.047485 1282.786255 666.914185 1280.098633 C 666.914185 1279.506836 667.093384 1279.015137 667.455933 1278.623535 C 667.814209 1278.227661 668.293457 1278.031738 668.880981 1278.031738 L 678.523193 1278.031738 C 679.177368 1278.031738 679.706543 1278.131836 680.098267 1278.327637 C 680.48999 1278.523438 680.885864 1278.919312 681.277466 1279.506836 C 681.67334 1280.361084 682.344238 1281.031982 683.298462 1281.523682 C 684.244385 1282.015381 685.377808 1282.26123 686.694458 1282.26123 C 688.265381 1282.26123 689.611328 1281.752808 690.723877 1280.736084 C 691.840576 1279.71936 692.394775 1278.327637 692.394775 1276.556763 L 692.394775 1274.589966 C 692.394775 1273.869019 692.265625 1273.343994 692.007324 1273.014893 C 691.740601 1272.685669 691.348999 1272.523193 690.823853 1272.523193 C 690.561401 1272.523193 690.282227 1272.606445 689.986328 1272.769043 C 689.694702 1272.931519 689.348877 1273.081543 688.953003 1273.210693 C 687.969604 1273.735718 687.019531 1274.144043 686.098633 1274.439941 C 685.181885 1274.735718 684.002686 1274.881592 682.556763 1274.881592 C 679.606567 1274.881592 676.864746 1274.194092 674.34375 1272.81897 C 671.818604 1271.439697 669.668457 1269.506348 667.897583 1267.010376 C 666.45166 1264.914307 665.468262 1262.63501 664.947388 1260.172363 C 664.418213 1257.713989 664.15979 1254.155396 664.15979 1249.496826 C 664.15979 1246.41748 664.259888 1243.842285 664.455688 1241.775513 C 664.651489 1239.70874 665.014038 1237.937744 665.539063 1236.462646 C 666.064087 1234.987549 666.847534 1233.525024 667.897583 1232.083252 C 669.668457 1229.591431 671.818604 1227.653809 674.34375 1226.278809 C 676.864746 1224.899536 679.606567 1224.212036 682.556763 1224.212036 C 684.59021 1224.212036 686.265259 1224.491211 687.577881 1225.049561 C 688.890503 1225.60791 690.136353 1226.345459 691.315552 1227.262207 C 691.773926 1227.591309 692.186523 1227.870483 692.549072 1228.099731 C 692.907349 1228.328857 693.249023 1228.441406 693.578247 1228.441406 C 694.036621 1228.441406 694.39917 1228.328857 694.661621 1228.099731 C 694.924194 1227.870483 695.219971 1227.524658 695.545044 1227.066284 C 695.874146 1226.54126 696.203369 1226.162109 696.532593 1225.932861 C 696.857544 1225.703735 697.315918 1225.587036 697.907715 1225.587036 L 704.399658 1225.587036 C 704.924683 1225.587036 705.383057 1225.787109 705.778931 1226.178711 C 706.170654 1226.570435 706.370605 1227.032959 706.370605 1227.557983 L 706.370605 1274.785767 C 706.370605 1278.71936 705.516479 1282.165405 703.812134 1285.115601 C 702.10376 1288.065674 699.761963 1290.344971 696.774292 1291.953491 C 693.790771 1293.56189 690.432251 1294.366089 686.694458 1294.366089 C 682.690063 1294.366089 679.231567 1293.741089 676.310547 1292.495117"/>
    <path id="path20" fill="#22493f" stroke="none" d="M 741.884766 1274.687012 C 741.489014 1274.291138 741.297241 1273.836914 741.297241 1273.307739 L 741.297241 1208.370605 C 741.297241 1207.845581 741.489014 1207.387207 741.884766 1206.991333 C 742.28064 1206.599731 742.734863 1206.403809 743.264038 1206.403809 L 754.381348 1206.403809 C 754.906372 1206.403809 755.364746 1206.599731 755.76062 1206.991333 C 756.152344 1207.387207 756.348145 1207.845581 756.348145 1208.370605 L 756.348145 1273.307739 C 756.348145 1273.836914 756.152344 1274.291138 755.76062 1274.687012 C 755.364746 1275.078735 754.906372 1275.278687 754.381348 1275.278687 L 743.264038 1275.278687 C 742.734863 1275.278687 742.28064 1275.078735 741.884766 1274.687012"/>
    <path id="path21" fill="#22493f" stroke="none" d="M 793.198242 1261.649536 C 794.214966 1261.157837 795.019165 1260.453735 795.61084 1259.532837 C 796.131714 1258.682739 796.460938 1257.615967 796.594238 1256.336792 C 796.723389 1255.057495 796.790161 1253.074097 796.790161 1250.382202 C 796.790161 1247.62793 796.723389 1245.644531 796.594238 1244.431885 C 796.460938 1243.21936 796.131714 1242.185913 795.61084 1241.331787 C 795.019165 1240.415039 794.214966 1239.694092 793.198242 1239.164917 C 792.181519 1238.644043 790.88562 1238.381592 789.314697 1238.381592 C 787.802124 1238.381592 786.522827 1238.644043 785.476929 1239.164917 C 784.42688 1239.694092 783.639404 1240.415039 783.114258 1241.331787 C 782.718506 1241.923462 782.422607 1242.610962 782.226807 1243.39856 C 782.030884 1244.186035 781.914185 1245.202759 781.880859 1246.44873 C 781.851685 1247.69458 781.835083 1249.007202 781.835083 1250.382202 C 781.835083 1253.074097 781.897583 1255.057495 782.030884 1256.336792 C 782.160034 1257.615967 782.522583 1258.682739 783.114258 1259.532837 C 783.639404 1260.453735 784.42688 1261.157837 785.476929 1261.649536 C 786.522827 1262.141235 787.802124 1262.387085 789.314697 1262.387085 C 790.88562 1262.387085 792.181519 1262.141235 793.198242 1261.649536 M 777.897339 1274.537842 C 775.276367 1273.129395 773.042847 1271.079346 771.205322 1268.387451 C 769.76355 1266.291504 768.780151 1263.978882 768.259277 1261.453735 C 767.730103 1258.928589 767.467529 1255.240845 767.467529 1250.382202 C 767.467529 1247.102905 767.567627 1244.415283 767.763428 1242.315063 C 767.959229 1240.214966 768.321777 1238.398193 768.846802 1236.856445 C 769.371826 1235.314697 770.155273 1233.822998 771.205322 1232.377075 C 773.042847 1229.756104 775.276367 1227.739258 777.897339 1226.32666 C 780.522461 1224.918213 783.376831 1224.209839 786.460327 1224.209839 C 787.96875 1224.209839 789.214722 1224.376587 790.19812 1224.701538 C 791.181396 1225.030762 792.13147 1225.455811 793.052368 1225.980835 C 793.377441 1226.243408 793.723267 1226.443359 794.085815 1226.57251 C 794.444092 1226.705933 794.723389 1226.768433 794.92334 1226.768433 C 795.444214 1226.768433 795.835938 1226.622559 796.098389 1226.32666 C 796.360962 1226.030884 796.494263 1225.489136 796.494263 1224.701538 L 796.494263 1207.388062 C 796.494263 1206.863037 796.694336 1206.400513 797.085938 1206.008789 C 797.477661 1205.617188 797.936035 1205.417114 798.46521 1205.417114 L 808.795044 1205.417114 C 809.320068 1205.417114 809.77832 1205.617188 810.170044 1206.008789 C 810.565918 1206.400513 810.761719 1206.863037 810.761719 1207.388062 L 810.761719 1273.308594 C 810.761719 1273.833618 810.565918 1274.291992 810.170044 1274.687866 C 809.77832 1275.07959 809.320068 1275.275391 808.795044 1275.275391 L 802.302979 1275.275391 C 801.644531 1275.275391 801.152832 1275.14624 800.82373 1274.883667 C 800.494507 1274.621216 800.169434 1274.229492 799.840332 1273.704468 C 799.511108 1273.246094 799.21521 1272.91687 798.952759 1272.716919 C 798.690186 1272.520996 798.327759 1272.425171 797.869385 1272.425171 C 797.544312 1272.425171 797.181763 1272.53772 796.790161 1272.766846 C 796.394287 1273.000244 795.969238 1273.275269 795.510864 1273.604492 C 794.327515 1274.525391 793.098267 1275.262939 791.81897 1275.817139 C 790.543945 1276.375488 788.752197 1276.654663 786.460327 1276.654663 C 783.376831 1276.654663 780.522461 1275.950439 777.897339 1274.537842"/>
    <path id="path22" fill="#22493f" stroke="none" d="M 851.151245 1244.283569 C 851.30957 1244.087769 851.392944 1243.858521 851.392944 1243.596069 C 851.392944 1242.020996 851.11792 1240.612549 850.55957 1239.362427 C 850.001099 1238.120728 849.117798 1237.133179 847.905151 1236.412231 C 846.688477 1235.691406 845.22998 1235.328857 843.525757 1235.328857 C 840.771484 1235.328857 838.704712 1236.116455 837.325439 1237.691528 C 835.946167 1239.266602 835.258667 1241.233398 835.258667 1243.596069 C 835.258667 1243.858521 835.341919 1244.087769 835.504517 1244.283569 C 835.666992 1244.47937 835.916992 1244.579468 836.246216 1244.579468 L 850.409546 1244.579468 C 850.738647 1244.579468 850.984497 1244.47937 851.151245 1244.283569 M 831.079224 1273.606079 C 827.762329 1271.572632 825.324707 1268.601685 823.745483 1264.701416 C 822.174561 1260.796997 821.386963 1256.025879 821.386963 1250.383911 C 821.386963 1244.808594 822.174561 1240.070801 823.745483 1236.166382 C 825.324707 1232.262085 827.762329 1229.295166 831.079224 1227.261719 C 834.391846 1225.228271 838.504639 1224.211548 843.425781 1224.211548 C 848.213501 1224.211548 852.213745 1225.178223 855.430664 1227.111694 C 858.643311 1229.049316 861.022583 1231.803711 862.564331 1235.378906 C 864.101929 1238.954102 864.877075 1243.233521 864.877075 1248.217163 L 864.877075 1253.334106 C 864.877075 1253.859131 864.681152 1254.338379 864.285278 1254.763306 C 863.893677 1255.188354 863.431152 1255.400879 862.910278 1255.400879 L 836.342041 1255.400879 C 836.079468 1255.400879 835.850342 1255.484253 835.654419 1255.646729 C 835.458618 1255.813354 835.358643 1256.059204 835.358643 1256.384277 C 835.358643 1258.288574 835.704468 1259.896973 836.391968 1261.205444 C 837.07959 1262.517944 838.046265 1263.488892 839.292236 1264.109741 C 840.538086 1264.734741 841.950684 1265.043091 843.525757 1265.043091 C 845.296753 1265.043091 846.705078 1264.747314 847.755127 1264.15979 C 848.805298 1263.567993 849.621948 1262.68042 850.217773 1261.501221 C 850.542847 1260.913696 850.921997 1260.467896 851.347046 1260.171997 C 851.772095 1259.880371 852.280396 1259.730347 852.872192 1259.730347 L 862.318481 1259.730347 C 862.972778 1259.730347 863.451904 1259.942871 863.743652 1260.37207 C 864.039429 1260.796997 864.118652 1261.338745 863.993652 1261.99292 C 862.939453 1266.584839 860.643433 1270.176758 857.101563 1272.768555 C 853.559692 1275.360352 849.034424 1276.65625 843.525757 1276.65625 C 838.537964 1276.65625 834.391846 1275.635376 831.079224 1273.606079"/>
    <path id="path23" fill="#22493f" stroke="none" d="M 897.586792 1264.50354 C 898.732788 1264.011841 899.636963 1263.257568 900.295288 1262.240845 C 900.945435 1261.224121 901.274536 1259.961548 901.274536 1258.453125 L 901.274536 1256.090454 C 901.274536 1255.761353 901.191284 1255.498779 901.028687 1255.302979 C 900.866211 1255.107178 900.620361 1255.00708 900.295288 1255.00708 L 892.915771 1255.00708 C 891.207275 1255.00708 889.86145 1255.453003 888.878052 1256.336304 C 887.894653 1257.223877 887.402954 1258.4198 887.402954 1259.928223 C 887.402954 1261.569946 887.957153 1262.865967 889.078003 1263.815918 C 890.190552 1264.765991 891.7323 1265.241089 893.703247 1265.241089 C 895.14502 1265.241089 896.436768 1264.995239 897.586792 1264.50354 M 881.498413 1274.587402 C 879.006592 1273.212402 877.089844 1271.27478 875.743896 1268.782959 C 874.397949 1266.291138 873.727173 1263.407593 873.727173 1260.124023 C 873.727173 1257.17395 874.364624 1254.50293 875.643921 1252.106934 C 876.923096 1249.710938 878.844116 1247.810913 881.402588 1246.398315 C 883.956909 1244.989868 887.044556 1244.285645 890.648926 1244.285645 L 900.295288 1244.285645 C 900.620361 1244.285645 900.866211 1244.185669 901.028687 1243.989746 C 901.191284 1243.789795 901.274536 1243.560669 901.274536 1243.298096 L 901.274536 1241.822998 C 901.274536 1239.989624 900.749512 1238.593628 899.699463 1237.643555 C 898.653564 1236.693481 897.078491 1236.214355 894.978394 1236.214355 C 893.140747 1236.214355 891.715698 1236.543579 890.698975 1237.197754 C 889.682251 1237.856079 889.011353 1238.772827 888.682129 1239.952026 C 888.482178 1240.543823 888.219604 1240.922974 887.894653 1241.085449 C 887.56543 1241.252197 887.044556 1241.331299 886.32373 1241.331299 L 877.660645 1241.331299 C 877.00647 1241.331299 876.514771 1241.1521 876.185547 1240.789673 C 875.856445 1240.431274 875.693848 1239.922852 875.693848 1239.264526 C 875.693848 1236.839355 876.464844 1234.460083 878.006592 1232.130737 C 879.54834 1229.805664 881.777588 1227.901367 884.698608 1226.42627 C 887.615479 1224.951172 891.0448 1224.209473 894.978394 1224.209473 C 899.111938 1224.209473 902.620483 1224.93457 905.508179 1226.376221 C 908.391602 1227.817993 910.591797 1229.868164 912.10022 1232.526611 C 913.608643 1235.180908 914.362793 1238.314453 914.362793 1241.922974 L 914.362793 1273.308228 C 914.362793 1273.833252 914.166992 1274.291626 913.771118 1274.687378 C 913.379395 1275.079102 912.921143 1275.279175 912.391846 1275.279175 L 905.89978 1275.279175 C 905.308105 1275.279175 904.849731 1275.145752 904.52478 1274.883301 C 904.195557 1274.620728 903.837158 1274.229126 903.441406 1273.704102 C 903.112183 1273.245728 902.816284 1272.916504 902.553833 1272.720703 C 902.29126 1272.52063 901.928833 1272.424805 901.470459 1272.424805 C 901.145386 1272.424805 900.782837 1272.537354 900.391235 1272.766479 C 899.999512 1272.999878 899.603638 1273.274902 899.211914 1273.604004 C 897.966064 1274.524902 896.682617 1275.262451 895.374268 1275.81665 C 894.061646 1276.375 892.290649 1276.654175 890.061401 1276.654175 C 886.844604 1276.654175 883.990234 1275.966675 881.498413 1274.587402"/>
    <path id="path24" fill="#22493f" stroke="none" d="M 933.747314 1274.687012 C 930.663818 1273.37439 928.301147 1271.457642 926.663574 1268.932495 C 925.021851 1266.407349 924.200928 1263.436401 924.200928 1260.027832 C 924.200928 1259.502808 924.380127 1259.077759 924.742554 1258.748535 C 925.100952 1258.419434 925.5802 1258.256836 926.167725 1258.256836 L 936.401611 1258.256836 C 936.993286 1258.256836 937.468384 1258.419434 937.830933 1258.748535 C 938.189209 1259.077759 938.372559 1259.502808 938.372559 1260.027832 C 938.372559 1261.144531 938.614258 1262.090454 939.110107 1262.878052 C 939.601807 1263.665527 940.339355 1264.273926 941.322754 1264.698975 C 942.306152 1265.128174 943.485352 1265.340576 944.864624 1265.340576 C 946.835571 1265.340576 948.339844 1264.932251 949.389893 1264.11145 C 950.439941 1263.290527 950.964966 1262.223755 950.964966 1260.911255 C 950.964966 1259.798584 950.602417 1258.927734 949.881592 1258.302734 C 949.160645 1257.681885 947.914795 1257.140137 946.143921 1256.681763 L 939.551758 1255.006714 C 934.893188 1253.827515 931.417969 1251.956543 929.12207 1249.402222 C 926.82605 1246.84375 925.680176 1243.626831 925.680176 1239.755859 C 925.680176 1236.739014 926.51355 1234.05127 928.188599 1231.688721 C 929.859619 1229.32605 932.155518 1227.492554 935.072388 1226.180054 C 937.993408 1224.867432 941.356079 1224.213257 945.160522 1224.213257 C 948.964844 1224.213257 952.306763 1224.834106 955.198608 1226.079956 C 958.082031 1227.325928 960.311401 1229.096802 961.886475 1231.392822 C 963.461548 1233.688843 964.249146 1236.34729 964.249146 1239.364136 C 964.249146 1239.955811 964.053223 1240.430786 963.657349 1240.789185 C 963.265747 1241.151733 962.803223 1241.330933 962.282349 1241.330933 L 952.635864 1241.330933 C 952.04834 1241.330933 951.573364 1241.151733 951.210815 1240.789185 C 950.852417 1240.430786 950.67334 1239.955811 950.67334 1239.364136 C 950.602417 1238.314087 950.077393 1237.397339 949.093994 1236.609741 C 948.110596 1235.822266 946.798096 1235.426392 945.160522 1235.426392 C 943.389526 1235.426392 942.010254 1235.772217 941.026855 1236.459839 C 940.043457 1237.151489 939.551758 1238.084839 939.551758 1239.26416 C 939.551758 1240.314209 939.943481 1241.13501 940.731079 1241.726807 C 941.522705 1242.314331 942.864502 1242.843506 944.764648 1243.297729 L 951.848389 1245.072754 C 956.377808 1246.252075 959.686279 1248.006348 961.790649 1250.335571 C 963.886597 1252.664917 964.936646 1255.960938 964.936646 1260.223633 C 964.936646 1263.503052 964.132446 1266.374023 962.524048 1268.83252 C 960.915527 1271.291016 958.590454 1273.211914 955.540283 1274.587036 C 952.490112 1275.966309 948.864868 1276.653809 944.668823 1276.653809 C 940.468506 1276.653809 936.82666 1275.999634 933.747314 1274.687012"/>
    <path id="path25" fill="#22493f" stroke="none" d="M 208.422302 190.860596 C 200.296875 174.201416 189.917053 156.346191 192.025513 137.078369 L 216.510315 137.078369 Z M 855.260132 196.315186 C 854.301758 207.057373 842.363647 234.504883 835.517456 243.026123 C 831.567139 247.947266 830.467041 245.972168 828.875244 240.734375 C 825.991821 231.233887 826.533569 215.516357 827.29187 205.507324 C 829.016968 182.605957 834.954834 160.437988 840.842651 138.390869 C 840.896851 138.34082 841.838623 138.811768 842.009399 138.974365 C 845.222168 141.986816 850.789063 164.071533 851.993286 169.426025 C 853.880981 177.813965 856.026978 187.7229 855.260132 196.315186 M 882.365967 230.416992 C 883.053467 229.817139 889.83313 224.470947 890.241455 224.958496 C 890.291504 227.433594 890.733154 229.679688 890.699829 232.196289 C 890.20813 272.211182 892.762329 312.296875 891.574829 352.420044 C 891.358154 359.774658 890.324829 367.320923 890.203857 374.700562 C 890.124756 379.530029 892.733276 383.184326 885.970337 384.855347 C 882.090942 385.813721 870.331909 385.855347 866.439941 384.955322 C 864.506592 384.505249 862.423096 378.154907 861.706421 376.129761 C 856.872803 362.479004 855.606079 347.832275 852.510132 333.739746 C 848.184814 314.047119 845.343018 309.280029 850.234863 288.345459 C 855.526855 265.685791 864.61499 245.905518 882.365967 230.416992 M 869.59436 169.988525 C 869.290161 170.563721 868.919312 171.188721 868.169312 171.188721 C 867.852661 171.18457 866.006714 165.967529 865.752441 165.28833 C 862.38562 156.287842 860.610596 146.712158 860.514648 137.078369 L 882.811768 137.078369 Z M 890.699829 188.435547 C 890.483032 199.840332 892.466553 203.519775 883.25354 211.628418 C 882.232666 212.532715 876.4198 217.216309 875.382202 216.212158 L 888.578857 174.980469 C 888.670532 174.205566 890.174683 173.976318 890.641479 174.284668 C 892.162354 175.292969 890.249756 183.564453 890.228882 185.4104 C 890.216431 186.4646 890.720581 187.40625 890.699829 188.435547 M 806.29895 137.078369 L 813.732788 137.078369 C 814.199463 137.540771 811.578491 148.753906 811.099243 149.966553 C 810.815918 150.679199 810.515991 151.5 809.58252 151.512451 C 808.844971 151.520752 806.803223 138.453369 806.29895 137.078369 M 291.047974 586.521362 C 320.353882 575.512329 351.03064 567.803589 380.994995 558.857178 C 432.168701 543.581299 493.088989 536.359985 540.775146 514.467041 C 547.392212 511.429443 554.950928 507.925049 558.859497 501.491333 C 552.079956 493.469971 541.104248 488.173828 531.195435 484.977905 C 500.806152 475.185669 466.229126 476.985718 435.110596 468.706055 C 428.031006 466.818481 412.875977 462.564087 412.400879 453.771851 C 412.163452 449.375732 421.97644 446.242188 425.497559 445.096313 C 445.373657 438.60437 470.491821 435.508301 491.355591 432.695679 C 535.070679 426.795288 581.452515 421.84082 625.496704 419.494873 C 626.200928 419.457397 628.492798 419.17395 628.792847 419.949097 C 623.79248 420.761597 618.150513 421.236572 613.300171 422.599243 C 609.174927 423.757568 604.670532 425.94104 600.470337 427.257813 C 585.598633 431.928955 570.635254 435.483276 555.688477 439.750244 C 552.938354 440.53772 539.137573 444.454712 538.05835 446.179688 C 537.291626 447.400635 538.883301 450.150879 539.887573 450.930054 C 543.958618 454.096924 560.022095 456.280273 565.680786 457.05127 C 616.417114 463.989136 670.791016 461.22229 720.06897 476.235718 C 728.906982 478.92749 749.762329 486.457153 755.071045 493.695068 C 772.68042 517.704834 738.761719 531.16394 721.468994 538.201782 C 684.279297 553.34436 644.860352 561.569824 610.641724 583.458618 C 600.199463 590.138184 589.061279 597.659424 586.236084 610.639404 C 584.52356 618.51062 585.65271 621.744141 591.86145 626.740356 C 599.045166 632.528198 616.033691 636.911743 625.300903 639.645264 C 677.695679 655.125366 731.973755 663.85083 784.776978 679.535034 C 822.462402 690.727417 859.664673 702.765625 890.445557 728.200439 C 891.299805 728.908813 893.841675 730.696411 894.087524 731.550659 L 894.087524 853.353638 C 873.686279 872.792236 849.926514 888.28479 825.758423 902.627319 L 258.483582 902.627319 L 285.039307 889.172363 C 303.869568 878.696777 323.712402 869.233643 342.721863 858.545532 C 368.494263 844.057251 396.6875 827.7146 419.580566 809.055176 C 427.160156 802.879883 446.715454 785.820435 445.144531 775.211426 C 444.448608 770.482056 435.139771 763.373291 431.314575 760.619019 C 390.787231 731.37146 334.000488 718.433228 286.564392 703.815674 C 260.500366 695.786011 205.426331 679.560059 214.268494 642.653809 C 220.948059 614.768799 266.684082 595.671875 291.047974 586.521362 M 669.890991 164.84668 C 669.220093 155.587646 667.299194 146.395508 667.27002 137.078369 L 680.604126 137.078369 C 695.296631 153.729248 714.376953 174.24707 721.160645 195.769287 C 730.38208 225.012695 730.894653 259.389648 736.924072 289.745605 C 740.666016 308.609131 749.104004 327.764404 750.333252 347.161377 C 750.704102 353.041016 750.949951 355.270264 745.082886 352.411743 C 734.365601 347.190674 724.152466 338.54834 713.747803 332.598145 C 708.955811 329.856201 703.680542 327.885254 698.8927 325.151855 C 691.388062 320.872314 690.700562 318.272217 687.004517 310.809326 C 675.741333 288.049561 665.936646 263.23999 665.503296 237.438477 C 665.099121 213.382813 671.599487 188.53125 669.890991 164.84668 M 598.19104 137.078369 L 651.969116 137.078369 L 653.735962 161.325684 C 654.085938 173.355469 653.640015 198.510986 649.239868 209.33252 C 647.560547 213.461914 647.314697 213.724365 644.789551 210.057617 C 641.481079 205.240723 639.264282 198.877686 636.301514 193.623291 C 631.55542 185.206055 625.592529 176.259766 620.234009 168.15918 C 613.200195 157.529541 605.495605 147.495605 598.19104 137.078369 M 647.898071 278.21582 C 648.989868 283.624512 649.88147 288.920654 649.343994 294.470947 C 637.105713 288.891357 625.534302 281.607666 616.32959 271.744629 C 589.361328 242.86377 570.710205 203.427979 554.830078 167.54248 C 553.880005 165.396729 549.74231 156.721191 549.658936 155.183594 C 549.56311 153.479248 555.184326 148.253906 556.651001 146.912109 C 560.384644 143.495361 564.676514 140.661865 568.480957 137.315918 C 569.505981 136.90332 575.360474 136.869873 576.322998 137.307373 C 577.177246 137.695068 583.523438 145.141357 584.627686 146.491455 C 588.115356 150.75415 591.448975 155.583496 594.611572 160.113037 C 621.129883 198.052734 638.626709 232.254639 647.898071 278.21582 M 415.738647 239.467529 C 443.419434 219.820557 473.554565 205.794922 501.706177 187.710449 C 504.606323 185.8479 511.690063 179.459961 514.419434 179.522461 C 518.19043 179.609863 523.028198 185.322754 525.628418 188.002197 C 530.320313 192.843994 535.408203 198.431885 539.829224 203.528076 C 545.02124 209.515869 547.092163 213.291016 551.229858 219.674805 C 554.338379 224.470947 559.417847 229.254639 562.947266 234.188232 C 580.269043 258.381348 586.711182 287.312012 611.791748 305.138184 C 621.500732 312.038574 632.226318 317.443115 641.872681 324.460205 C 650.248169 330.552246 657.827759 337.715088 666.003296 344.052979 C 684.087646 358.074585 707.309814 371.079468 722.144043 388.468018 C 723.152466 389.651489 728.411133 396.451782 727.169312 397.656006 C 718.960571 398.410278 710.701782 398.314453 702.538818 399.477051 C 674.374634 403.485596 645.572998 416.057129 616.82959 412.902832 C 607.408203 411.869385 598.120117 409.465088 588.736206 408.202515 C 563.78894 404.848145 538.458374 405.244019 513.727661 400.143677 C 498.347656 396.968506 483.050903 391.493164 467.241699 390.66394 C 448.407227 389.672241 429.276978 395.118408 410.392456 394.176758 C 399.47522 393.63501 388.166138 390.53479 377.178101 390.626465 C 363.989746 390.739014 350.355591 395.035034 336.942383 394.176758 C 330.546143 393.76416 324.458313 391.314087 318.10376 390.713989 C 315.770264 390.497314 299.031799 390.426514 298.669312 388.634766 C 299.960999 381.717651 303.607056 375.475586 306.936401 369.379395 C 335.908936 316.30127 365.956543 274.798828 415.738647 239.467529 M 373.381958 183.993652 C 372.990356 184.631104 369.290039 190.902344 368.665039 190.418945 C 367.419189 183.743652 364.564819 177.438965 363.102173 170.834473 C 360.518677 159.137939 362.335449 148.520752 365.160645 137.078369 L 396.204102 137.078369 C 389.91626 153.06665 382.34082 169.317627 373.381958 183.993652 M 496.114136 160.679688 C 496.793335 161.304688 500.651978 164.90918 500.256104 165.488281 C 492.880615 170.309326 485.938599 175.643066 478.254761 180.001709 C 452.507446 194.606689 424.176636 205.040527 400.000244 222.416748 C 395.487427 225.658447 384.865967 235.646484 380.482422 237.000732 C 377.503052 237.925781 377.382202 236.804932 377.940552 234.021484 C 378.840576 229.575439 384.324341 221.44165 386.520264 216.807861 C 398.829346 190.868896 407.821533 163.038086 420.680542 137.294922 L 462.770508 137.186768 C 473.679565 144.816162 486.321899 151.625 496.114136 160.679688 M 538.454224 163.783936 C 539.541748 164.150635 545.158691 181.993408 544.408691 182.985107 C 540.937622 182.497559 530.120361 173.447021 529.341064 170.74707 C 528.861938 169.092773 536.479004 163.117432 538.454224 163.783936 M 521.378174 152.300049 C 519.690552 153.37085 515.452759 155.816895 513.59436 155.821045 C 510.135864 155.833496 497.793457 145.862061 495.222412 142.770264 L 491.076416 137.078369 L 524.52417 137.078369 C 525.27002 138.499268 529.832886 144.85376 529.353638 145.812256 C 528.820313 146.878906 522.744873 151.43335 521.378174 152.300049 M 330.621155 137.078369 L 344.176086 137.078369 L 345.917908 154.129395 C 342.175964 150.329102 337.804871 146.828857 334.329712 142.770264 C 332.917114 141.120117 331.33783 139.140869 330.621155 137.078369 M 347.026245 189.535645 C 354.151733 228.691895 331.058655 257.022949 312.078369 287.953857 C 304.202942 300.783691 297.11499 314.047119 288.385315 326.343506 C 285.406006 330.53125 281.359924 334.752441 278.668091 338.927734 C 277.955566 340.031982 277.134705 344.027832 275.205383 342.019531 C 273.238647 339.969482 276.363831 324.147705 276.98468 320.626465 C 279.147278 308.28418 282.268311 296.300049 283.401733 283.757813 C 287.001953 243.797119 288.756226 203.282227 300.77356 164.72583 C 301.861145 161.242188 310.107422 137.84082 312.111755 137.14917 C 312.674255 136.95752 318.887146 136.96582 319.182983 137.15332 C 319.387146 137.27832 320.770569 140.628418 321.258118 141.416016 C 331.387878 157.858643 343.355225 169.355225 347.026245 189.535645 M 169.590881 379.809204 C 169.315857 381.342651 168.549133 385.772095 167.911621 386.87207 C 167.511597 387.559692 167.194885 387.49292 166.590698 387.73877 C 162.798828 389.276367 153.073242 390.884888 149.01886 390.60144 C 147.422913 390.493164 136.259766 388.530518 135.730591 387.930542 C 135.476379 387.326294 135.359741 386.667969 135.251404 386.017944 C 134.234619 379.992554 134.042969 371.750366 133.859619 365.537476 C 132.963745 334.706543 133.576294 303.650635 132.98877 272.848877 C 132.93042 269.890137 132.98877 262.089844 134.713867 259.756348 C 135.005554 259.364746 135.805603 259.368896 136.03894 259.514648 C 136.251465 259.647949 136.543091 262.173096 136.84729 262.868896 C 137.914063 265.327393 139.997498 268.061035 141.251709 270.707031 C 147.006226 282.857666 150.339783 295.725098 155.6651 307.884033 C 157.465149 312.000977 160.098633 315.980469 161.94043 319.972412 C 169.090881 335.498291 172.62439 363.083252 169.590881 379.809204 M 133.442932 137.078369 L 143.276855 137.078369 C 154.906677 149.883301 164.7948 162.783936 171.336853 178.976563 C 183.316711 208.620117 193.400635 243.271973 189.837891 275.453125 C 189.70459 276.674072 188.546143 284.878662 187.437744 284.845215 L 167.669922 253.468506 C 160.336182 234.629883 150.356445 216.999756 142.110107 198.586182 C 138.451538 190.418945 132.322021 177.984863 131.676147 169.230225 C 130.88031 158.471191 134.076294 147.837158 133.442932 137.078369 M 53.846619 972.914795 L 964.937378 972.914795 L 964.937378 61.823975 L 53.846619 61.823975 Z"/>
</svg>
